<svg width="37" height="34" viewBox="0 0 37 34" fill="none" xmlns="http://www.w3.org/2000/svg">
<rect width="37" height="34" fill="white" fill-opacity="0.2"/>
<path d="M32.0541 0.246094H5.00712C2.357 0.246094 0.201172 2.22712 0.201172 4.66344V29.5158C0.201172 31.9522 2.357 33.9342 5.00712 33.9342H32.0541C34.7043 33.9342 36.8612 31.9522 36.8612 29.5158V4.66344C36.8612 2.22712 34.7043 0.246094 32.0541 0.246094ZM9.04533 5.13678C9.48217 5.13157 9.91578 5.20615 10.321 5.35619C10.7262 5.50623 11.095 5.72874 11.4058 6.0108C11.7167 6.29286 11.9635 6.62886 12.1319 6.99928C12.3004 7.36971 12.387 7.76718 12.3869 8.16864C12.3868 8.57009 12.2999 8.96752 12.1313 9.33787C11.9626 9.70821 11.7156 10.0441 11.4046 10.326C11.0936 10.6079 10.7247 10.8302 10.3194 10.9801C9.91409 11.1299 9.48043 11.2043 9.04359 11.1989C8.17634 11.1881 7.3486 10.8639 6.73954 10.2965C6.13048 9.72907 5.78911 8.96405 5.78934 8.16704C5.78957 7.37004 6.13137 6.60518 6.74075 6.03804C7.35014 5.4709 8.17807 5.14712 9.04533 5.13678ZM5.48466 29.3889V13.6394C5.48466 13.4182 5.53208 13.1992 5.62421 12.9949C5.71635 12.7905 5.85139 12.6048 6.02163 12.4484C6.19187 12.2921 6.39397 12.168 6.61639 12.0834C6.8388 11.9988 7.07717 11.9553 7.31789 11.9554H10.0495C10.4276 11.9528 10.7956 12.0678 11.0936 12.2816L15.6412 15.5503L19.044 14.5505C19.2362 14.494 19.4387 14.4729 19.6398 14.4884C19.8409 14.5038 20.0367 14.5556 20.2161 14.6406C20.3954 14.7257 20.5548 14.8424 20.685 14.9841C20.8152 15.1258 20.9137 15.2897 20.9749 15.4664C21.0987 15.8232 21.0633 16.2105 20.8765 16.5432C20.6897 16.876 20.3669 17.1271 19.9788 17.2413L15.8025 18.4674C15.564 18.5377 15.3103 18.5532 15.0638 18.5126C14.8173 18.4719 14.5854 18.3764 14.3884 18.2342L12.6609 16.9922L16.4118 29.3883H5.48408L5.48466 29.3889ZM31.7078 29.3889H26.9753V16.7547H26.3168L22.3029 23.9133C22.1237 24.2415 21.8101 24.491 21.431 24.607C21.0519 24.723 20.6382 24.6961 20.2806 24.5322C20.1035 24.4512 19.9456 24.339 19.8159 24.2018C19.6861 24.0646 19.5871 23.9053 19.5244 23.7329C19.4618 23.5605 19.4368 23.3785 19.4509 23.1972C19.465 23.0159 19.5179 22.839 19.6065 22.6765L24.4188 14.1723L22.5509 13.896L22.4018 14.3933L17.7918 13.4445L17.9213 12.9137L17.0593 12.7363L16.9275 13.2665L16.5835 13.1964L16.9795 11.5734L17.3258 11.6435L17.1975 12.1737L18.0595 12.3501L18.189 11.822L22.7983 12.7708L22.7168 13.2543L24.6472 13.7723L24.9796 13.1858C25.493 12.4505 26.1064 12.0255 27.4575 12.0255H31.7101V29.3894L31.7078 29.3889ZM28.4524 11.2095C27.5838 11.1989 26.7546 10.8744 26.1444 10.3063C25.5343 9.73809 25.1921 8.97194 25.1921 8.17367C25.1921 7.37541 25.5343 6.60926 26.1444 6.04108C26.7546 5.4729 27.5838 5.1484 28.4524 5.13784C29.3286 5.13784 30.1689 5.45769 30.7885 6.02702C31.408 6.59635 31.7561 7.36852 31.7561 8.17367C31.7561 8.97882 31.408 9.751 30.7885 10.3203C30.1689 10.8897 29.3286 11.2095 28.4524 11.2095Z" fill="#007F73"/>
<path d="M10.7135 17.7754H8.73569V19.3006H7.08398V21.1239H8.73569V22.6411H10.7135V21.1239H12.3709V19.3006H10.7135V17.7754Z" fill="#007F73"/>
</svg>
