<svg width="34" height="27" viewBox="0 0 34 27" fill="none" xmlns="http://www.w3.org/2000/svg">
<path d="M10.5 13C12.2239 13 13.8772 12.3152 15.0962 11.0962C16.3152 9.87721 17 8.22391 17 6.5C17 4.77609 16.3152 3.12279 15.0962 1.90381C13.8772 0.684819 12.2239 0 10.5 0C8.77609 0 7.12279 0.684819 5.90381 1.90381C4.68482 3.12279 4 4.77609 4 6.5C4 8.22391 4.68482 9.87721 5.90381 11.0962C7.12279 12.3152 8.77609 13 10.5 13ZM21.874 23.29C22.934 23.724 24.282 24 25.998 24C33.998 24 33.998 18 33.998 18C33.998 17.2047 33.6822 16.4419 33.12 15.8794C32.5579 15.3168 31.7953 15.0005 31 15H21.744C22.53 15.952 23.002 17.17 23.002 18.5V19.212C22.9977 19.3804 22.9864 19.5486 22.968 19.716C22.8318 20.9654 22.4594 22.1779 21.874 23.29ZM31 8C31 9.32608 30.4732 10.5979 29.5355 11.5355C28.5979 12.4732 27.3261 13 26 13C24.6739 13 23.4021 12.4732 22.4645 11.5355C21.5268 10.5979 21 9.32608 21 8C21 6.67392 21.5268 5.40215 22.4645 4.46447C23.4021 3.52678 24.6739 3 26 3C27.3261 3 28.5979 3.52678 29.5355 4.46447C30.4732 5.40215 31 6.67392 31 8ZM0 19C0 17.9391 0.421427 16.9217 1.17157 16.1716C1.92172 15.4214 2.93913 15 4 15H17C18.0609 15 19.0783 15.4214 19.8284 16.1716C20.5786 16.9217 21 17.9391 21 19C21 19 21 27 10.5 27C0 27 0 19 0 19Z" fill="#007F73"/>
</svg>
