<svg width="40" height="40" viewBox="0 0 40 40" fill="none" xmlns="http://www.w3.org/2000/svg">
<path d="M21.7175 3.15406C21.2533 2.71522 20.6388 2.4707 20 2.4707C19.3612 2.4707 18.7467 2.71522 18.2825 3.15406L6.1725 14.5991C5.80171 14.9499 5.50646 15.3728 5.30484 15.8418C5.10323 16.3108 4.9995 16.8161 5 17.3266V31.2516C5.00066 32.2457 5.39605 33.1989 6.09923 33.9016C6.80242 34.6043 7.75587 34.9991 8.75 34.9991H12.5C13.4946 34.9991 14.4484 34.604 15.1517 33.9007C15.8549 33.1975 16.25 32.2436 16.25 31.2491V24.9991C16.25 24.6675 16.3817 24.3496 16.6161 24.1152C16.8505 23.8808 17.1685 23.7491 17.5 23.7491H22.5C22.8315 23.7491 23.1495 23.8808 23.3839 24.1152C23.6183 24.3496 23.75 24.6675 23.75 24.9991V31.2491C23.75 32.2436 24.1451 33.1975 24.8484 33.9007C25.5516 34.604 26.5054 34.9991 27.5 34.9991H31.25C32.2446 34.9991 33.1984 34.604 33.9017 33.9007C34.6049 33.1975 35 32.2436 35 31.2491V17.3241C34.9998 16.8138 34.8956 16.3089 34.6935 15.8404C34.4915 15.3718 34.1959 14.9494 33.825 14.5991L21.7175 3.15406Z" fill="#007F73"/>
</svg>
