<svg width="40" height="40" viewBox="0 0 40 40" fill="none" xmlns="http://www.w3.org/2000/svg">
<path fill-rule="evenodd" clip-rule="evenodd" d="M13.3855 6.92093C13.3855 5.16671 14.0824 3.48434 15.3228 2.24392C16.5632 1.0035 18.2456 0.306641 19.9998 0.306641C21.754 0.306641 23.4364 1.0035 24.6768 2.24392C25.9172 3.48434 26.6141 5.16671 26.6141 6.92093C26.6141 8.67514 25.9172 10.3575 24.6768 11.5979C23.4364 12.8384 21.754 13.5352 19.9998 13.5352C18.2456 13.5352 16.5632 12.8384 15.3228 11.5979C14.0824 10.3575 13.3855 8.67514 13.3855 6.92093ZM6.98836 17.7552C8.33478 16.477 10.1204 15.7645 11.9769 15.7645C13.8334 15.7645 15.6191 16.477 16.9655 17.7552L16.9941 17.7838L19.9998 20.7895L23.0084 17.7838L23.0369 17.7552C24.3831 16.4787 26.1675 15.7672 28.0226 15.7672C29.8778 15.7672 31.6622 16.4787 33.0084 17.7552C33.6763 18.3898 34.2083 19.1534 34.5721 19.9999C34.9358 20.8463 35.1238 21.7578 35.1246 22.6791C35.1254 23.6004 34.939 24.5122 34.5767 25.3593C34.2144 26.2063 33.6837 26.9709 33.0169 27.6066L20.9941 39.2924C20.7274 39.5515 20.3702 39.6965 19.9984 39.6965C19.6265 39.6965 19.2693 39.5515 19.0026 39.2924L6.98264 27.6066C6.31611 26.9711 5.7856 26.2069 5.4233 25.3602C5.06101 24.5135 4.87447 23.6021 4.875 22.6811C4.87554 21.7602 5.06313 20.849 5.42641 20.0027C5.78969 19.1564 6.32108 18.3899 6.98836 17.7552Z" fill="#007F73"/>
</svg>
