<svg width="40" height="35" viewBox="0 0 40 35" fill="none" xmlns="http://www.w3.org/2000/svg">
<mask id="path-1-inside-1_2133_1508" fill="white">
<path d="M34.234 34.927H5.75803C5.48882 34.9271 5.22222 34.8809 4.97345 34.7908C4.72469 34.7008 4.49862 34.5687 4.30817 34.4023C4.11772 34.2358 3.9666 34.0381 3.86346 33.8205C3.76032 33.6029 3.70716 33.3697 3.70703 33.1341V1.86864C3.70703 0.878141 4.62703 0.0722656 5.75803 0.0722656H34.235C35.195 0.0722656 36.003 0.651516 36.228 1.43114H36.29L36.294 1.86864V33.1341C36.2911 33.6105 36.0728 34.0665 35.6868 34.4025C35.3008 34.7384 34.7785 34.927 34.234 34.927ZM5.75803 0.947266C5.17803 0.947266 4.70703 1.36114 4.70703 1.86864V33.1341C4.70703 33.6399 5.17803 34.052 5.75803 34.052H34.235C34.819 34.052 35.294 33.6399 35.294 33.1341L35.289 1.86864C35.289 1.36114 34.816 0.947266 34.234 0.947266H5.75803Z"/>
</mask>
<path d="M34.234 34.927H5.75803C5.48882 34.9271 5.22222 34.8809 4.97345 34.7908C4.72469 34.7008 4.49862 34.5687 4.30817 34.4023C4.11772 34.2358 3.9666 34.0381 3.86346 33.8205C3.76032 33.6029 3.70716 33.3697 3.70703 33.1341V1.86864C3.70703 0.878141 4.62703 0.0722656 5.75803 0.0722656H34.235C35.195 0.0722656 36.003 0.651516 36.228 1.43114H36.29L36.294 1.86864V33.1341C36.2911 33.6105 36.0728 34.0665 35.6868 34.4025C35.3008 34.7384 34.7785 34.927 34.234 34.927ZM5.75803 0.947266C5.17803 0.947266 4.70703 1.36114 4.70703 1.86864V33.1341C4.70703 33.6399 5.17803 34.052 5.75803 34.052H34.235C34.819 34.052 35.294 33.6399 35.294 33.1341L35.289 1.86864C35.289 1.36114 34.816 0.947266 34.234 0.947266H5.75803Z" fill="#007F73"/>
<path d="M34.234 34.927L34.2353 -65.073H34.234V34.927ZM5.75803 34.927V-65.073H5.73668L5.71534 -65.073L5.75803 34.927ZM3.70703 33.1341H-96.293V33.162L-96.293 33.1899L3.70703 33.1341ZM36.228 1.43114L-59.8508 29.1595L-38.9932 101.431H36.228V1.43114ZM36.29 1.43114L136.286 0.517395L135.38 -98.5689L36.29 -98.5689V1.43114ZM36.294 1.86864H136.294V1.41176L136.29 0.954895L36.294 1.86864ZM36.294 33.1341L136.292 33.7444L136.294 33.4393V33.1341H36.294ZM35.294 33.1341H135.294V33.1262L135.294 33.1182L35.294 33.1341ZM35.289 1.86864H-64.711V1.87663L-64.711 1.88462L35.289 1.86864ZM34.234 -65.073H5.75803V134.927H34.234V-65.073ZM5.71534 -65.073C16.8567 -65.0777 28.1354 -63.1744 39.0066 -59.2397L-29.0597 128.821C-17.6909 132.936 -5.87905 134.932 5.80072 134.927L5.71534 -65.073ZM39.0066 -59.2397C49.8798 -55.3043 60.5485 -49.2561 70.1222 -40.8872L-61.5059 109.692C-51.5512 118.394 -40.4304 124.706 -29.0597 128.821L39.0066 -59.2397ZM70.1222 -40.8872C79.7206 -32.4969 88.1613 -21.8055 94.2248 -9.01439L-86.4979 76.6554C-80.2281 89.8817 -71.4851 100.968 -61.5059 109.692L70.1222 -40.8872ZM94.2248 -9.01439C100.315 3.83234 103.699 18.1811 103.707 33.0784L-96.293 33.1899C-96.2844 48.5583 -92.794 63.3735 -86.4979 76.6554L94.2248 -9.01439ZM103.707 33.1341V1.86864H-96.293V33.1341H103.707ZM103.707 1.86864C103.707 68.144 46.9953 100.072 5.75803 100.072V-99.9277C-37.7412 -99.9277 -96.293 -66.3878 -96.293 1.86864H103.707ZM5.75803 100.072H34.235V-99.9277H5.75803V100.072ZM34.235 100.072C-2.5717 100.072 -45.9389 77.3643 -59.8508 29.1595L132.307 -26.2972C117.945 -76.0613 72.9618 -99.9277 34.235 -99.9277V100.072ZM36.228 101.431H36.29V-98.5689H36.228V101.431ZM-63.7058 2.34489L-63.7018 2.78239L136.29 0.954895L136.286 0.517395L-63.7058 2.34489ZM-63.706 1.86864V33.1341H136.294V1.86864H-63.706ZM-63.7041 32.5239C-63.5176 1.96397 -49.4243 -24.0926 -29.9638 -41.0296L101.337 109.835C121.57 92.2257 136.1 65.2571 136.292 33.7444L-63.7041 32.5239ZM-29.9638 -41.0296C-10.9217 -57.6025 12.3238 -65.0733 34.2353 -65.073L34.2328 134.927C57.2331 134.927 81.5232 127.079 101.337 109.835L-29.9638 -41.0296ZM5.75803 -99.0527C-37.3508 -99.0527 -95.293 -65.764 -95.293 1.86864H104.707C104.707 68.4863 47.7069 100.947 5.75803 100.947V-99.0527ZM-95.293 1.86864V33.1341H104.707V1.86864H-95.293ZM-95.293 33.1341C-95.293 101.108 -36.9588 134.052 5.75803 134.052V-65.948C47.3149 -65.948 104.707 -33.8285 104.707 33.1341H-95.293ZM5.75803 134.052H34.235V-65.948H5.75803V134.052ZM34.235 134.052C76.1738 134.052 135.294 101.789 135.294 33.1341H-64.706C-64.706 -34.5092 -6.53578 -65.948 34.235 -65.948V134.052ZM135.294 33.1182L135.289 1.85266L-64.711 1.88462L-64.706 33.1501L135.294 33.1182ZM135.289 1.86864C135.289 -66.1066 76.9536 -99.0527 34.234 -99.0527V100.947C-7.32156 100.947 -64.711 68.8289 -64.711 1.86864H135.289ZM34.234 -99.0527H5.75803V100.947H34.234V-99.0527Z" fill="#007F73" mask="url(#path-1-inside-1_2133_1508)"/>
<path d="M34.234 34.927L34.2353 -65.073H34.234V34.927ZM5.75803 34.927V-65.073H5.73668L5.71534 -65.073L5.75803 34.927ZM3.70703 33.1341H-96.293V33.162L-96.293 33.1899L3.70703 33.1341ZM36.228 1.43114L-59.8508 29.1595L-38.9932 101.431H36.228V1.43114ZM36.29 1.43114L136.286 0.517395L135.38 -98.5689L36.29 -98.5689V1.43114ZM36.294 1.86864H136.294V1.41176L136.29 0.954895L36.294 1.86864ZM36.294 33.1341L136.292 33.7444L136.294 33.4393V33.1341H36.294ZM35.294 33.1341H135.294V33.1262L135.294 33.1182L35.294 33.1341ZM35.289 1.86864H-64.711V1.87663L-64.711 1.88462L35.289 1.86864ZM34.234 -65.073H5.75803V134.927H34.234V-65.073ZM5.71534 -65.073C16.8567 -65.0777 28.1354 -63.1744 39.0066 -59.2397L-29.0597 128.821C-17.6909 132.936 -5.87905 134.932 5.80072 134.927L5.71534 -65.073ZM39.0066 -59.2397C49.8798 -55.3043 60.5485 -49.2561 70.1222 -40.8872L-61.5059 109.692C-51.5512 118.394 -40.4304 124.706 -29.0597 128.821L39.0066 -59.2397ZM70.1222 -40.8872C79.7206 -32.4969 88.1613 -21.8055 94.2248 -9.01439L-86.4979 76.6554C-80.2281 89.8817 -71.4851 100.968 -61.5059 109.692L70.1222 -40.8872ZM94.2248 -9.01439C100.315 3.83234 103.699 18.1811 103.707 33.0784L-96.293 33.1899C-96.2844 48.5583 -92.794 63.3735 -86.4979 76.6554L94.2248 -9.01439ZM103.707 33.1341V1.86864H-96.293V33.1341H103.707ZM103.707 1.86864C103.707 68.144 46.9953 100.072 5.75803 100.072V-99.9277C-37.7412 -99.9277 -96.293 -66.3878 -96.293 1.86864H103.707ZM5.75803 100.072H34.235V-99.9277H5.75803V100.072ZM34.235 100.072C-2.5717 100.072 -45.9389 77.3643 -59.8508 29.1595L132.307 -26.2972C117.945 -76.0613 72.9618 -99.9277 34.235 -99.9277V100.072ZM36.228 101.431H36.29V-98.5689H36.228V101.431ZM-63.7058 2.34489L-63.7018 2.78239L136.29 0.954895L136.286 0.517395L-63.7058 2.34489ZM-63.706 1.86864V33.1341H136.294V1.86864H-63.706ZM-63.7041 32.5239C-63.5176 1.96397 -49.4243 -24.0926 -29.9638 -41.0296L101.337 109.835C121.57 92.2257 136.1 65.2571 136.292 33.7444L-63.7041 32.5239ZM-29.9638 -41.0296C-10.9217 -57.6025 12.3238 -65.0733 34.2353 -65.073L34.2328 134.927C57.2331 134.927 81.5232 127.079 101.337 109.835L-29.9638 -41.0296ZM5.75803 -99.0527C-37.3508 -99.0527 -95.293 -65.764 -95.293 1.86864H104.707C104.707 68.4863 47.7069 100.947 5.75803 100.947V-99.0527ZM-95.293 1.86864V33.1341H104.707V1.86864H-95.293ZM-95.293 33.1341C-95.293 101.108 -36.9588 134.052 5.75803 134.052V-65.948C47.3149 -65.948 104.707 -33.8285 104.707 33.1341H-95.293ZM5.75803 134.052H34.235V-65.948H5.75803V134.052ZM34.235 134.052C76.1738 134.052 135.294 101.789 135.294 33.1341H-64.706C-64.706 -34.5092 -6.53578 -65.948 34.235 -65.948V134.052ZM135.294 33.1182L135.289 1.85266L-64.711 1.88462L-64.706 33.1501L135.294 33.1182ZM135.289 1.86864C135.289 -66.1066 76.9536 -99.0527 34.234 -99.0527V100.947C-7.32156 100.947 -64.711 68.8289 -64.711 1.86864H135.289ZM34.234 -99.0527H5.75803V100.947H34.234V-99.0527Z" fill="#007F73" fill-opacity="0.2" mask="url(#path-1-inside-1_2133_1508)"/>
<rect width="4" height="33" transform="translate(4 1)" fill="#007F73"/>
<rect width="4" height="33" transform="translate(32 1)" fill="#007F73"/>
<rect width="3.19146" height="24.2454" transform="translate(7.91602 3.81055) rotate(-89.9686)" fill="#007F73"/>
<rect width="3.41631" height="24.445" transform="translate(7.66602 34.3047) rotate(-89.9686)" fill="#007F73"/>
<path d="M18.3402 20.5913H10.355C10.2608 20.5913 10.1705 20.5602 10.104 20.5048C10.0374 20.4493 10 20.3742 10 20.2958C10 20.2174 10.0374 20.1422 10.104 20.0868C10.1705 20.0313 10.2608 20.0002 10.355 20.0002H18.3402C18.4343 20.0002 18.5246 20.0313 18.5912 20.0868C18.6578 20.1422 18.6952 20.2174 18.6952 20.2958C18.6952 20.3742 18.6578 20.4493 18.5912 20.5048C18.5246 20.5602 18.4343 20.5913 18.3402 20.5913ZM18.3402 22.1318H10.355C10.2608 22.1318 10.1705 22.1007 10.104 22.0453C10.0374 21.9898 10 21.9147 10 21.8363C10 21.7579 10.0374 21.6827 10.104 21.6273C10.1705 21.5718 10.2608 21.5407 10.355 21.5407H18.3402C18.4343 21.5407 18.5246 21.5718 18.5912 21.6273C18.6578 21.6827 18.6952 21.7579 18.6952 21.8363C18.6952 21.9147 18.6578 21.9898 18.5912 22.0453C18.5246 22.1007 18.4343 22.1318 18.3402 22.1318ZM18.3402 25.2105H10.355C10.2608 25.2105 10.1705 25.1793 10.104 25.1239C10.0374 25.0685 10 24.9933 10 24.9149C10 24.8365 10.0374 24.7613 10.104 24.7059C10.1705 24.6505 10.2608 24.6193 10.355 24.6193H18.3402C18.4343 24.6193 18.5246 24.6505 18.5912 24.7059C18.6578 24.7613 18.6952 24.8365 18.6952 24.9149C18.6952 24.9933 18.6578 25.0685 18.5912 25.1239C18.5246 25.1793 18.4343 25.2105 18.3402 25.2105ZM18.3402 23.6706H10.355C10.2608 23.6706 10.1705 23.6394 10.104 23.584C10.0374 23.5286 10 23.4534 10 23.375C10 23.2966 10.0374 23.2214 10.104 23.166C10.1705 23.1106 10.2608 23.0794 10.355 23.0794H18.3402C18.4343 23.0794 18.5246 23.1106 18.5912 23.166C18.6578 23.2214 18.6952 23.2966 18.6952 23.375C18.6952 23.4534 18.6578 23.5286 18.5912 23.584C18.5246 23.6394 18.4343 23.6706 18.3402 23.6706ZM18.3402 26.7498H10.355C10.2608 26.7498 10.1705 26.7187 10.104 26.6632C10.0374 26.6078 10 26.5326 10 26.4542C10 26.3758 10.0374 26.3007 10.104 26.2452C10.1705 26.1898 10.2608 26.1587 10.355 26.1587H18.3402C18.4343 26.1587 18.5246 26.1898 18.5912 26.2452C18.6578 26.3007 18.6952 26.3758 18.6952 26.4542C18.6952 26.5326 18.6578 26.6078 18.5912 26.6632C18.5246 26.7187 18.4343 26.7498 18.3402 26.7498ZM24.7451 27.75C21.8472 27.75 19.4903 25.7874 19.4903 23.3744C19.4903 20.962 21.8472 19 24.7451 19C27.6431 19 30 20.962 30 23.3744C30 25.7868 27.6431 27.75 24.7451 27.75ZM24.7451 19.5911C23.5405 19.5924 22.3855 19.9913 21.5335 20.7005C20.6816 21.4097 20.2021 22.3713 20.2002 23.3744C20.2002 25.4611 22.2391 27.1589 24.7451 27.1589C27.2512 27.1589 29.2901 25.4611 29.2901 23.3744C29.2901 21.2883 27.2512 19.5911 24.7451 19.5911Z" fill="#007F73"/>
<path d="M23.5532 11.0626L19.2723 7.49609L11.9959 13.5583C11.8833 13.6518 11.7939 13.763 11.733 13.8854C11.672 14.0077 11.6406 14.1389 11.6406 14.2714C11.6406 14.4039 11.672 14.5351 11.733 14.6575C11.7939 14.7799 11.8833 14.891 11.9959 14.9846L14.2786 16.8908C14.4024 16.9942 14.5495 17.0763 14.7115 17.1323C14.8735 17.1883 15.0472 17.2171 15.2226 17.2171C15.3979 17.2171 15.5716 17.1883 15.7336 17.1323C15.8956 17.0763 16.0427 16.9942 16.1666 16.8908" fill="white"/>
<path d="M23.5532 11.0626L19.2723 7.49609L11.9959 13.5583C11.8833 13.6518 11.7939 13.763 11.733 13.8854C11.672 14.0077 11.6406 14.1389 11.6406 14.2714C11.6406 14.4039 11.672 14.5351 11.733 14.6575C11.7939 14.7799 11.8833 14.891 11.9959 14.9846L14.2786 16.8908C14.4024 16.9942 14.5495 17.0763 14.7115 17.1323C14.8735 17.1883 15.0472 17.2171 15.2226 17.2171C15.3979 17.2171 15.5716 17.1883 15.7336 17.1323C15.8956 17.0763 16.0427 16.9942 16.1666 16.8908" stroke="#007F73" stroke-width="1.5" stroke-linecap="round" stroke-linejoin="round"/>
<path d="M12.424 15.3418L10.2836 17.1251L11.9956 18.5514L14.136 16.7682L12.424 15.3418ZM9 19.6215L11.1404 17.8383ZM17.9893 6.42705L19.2729 7.49641ZM20.5573 8.56651L23.5538 6.0701ZM25.2658 7.49641L22.2693 9.99282ZM22.2693 5L26.5502 8.56651ZM29 15.9706C29.0028 17.2639 28.4758 18.5193 27.506 19.5293C26.5362 20.5392 25.1818 21.2431 23.6667 21.5247C22.1515 21.2431 20.7971 20.5392 19.8273 19.5293C18.8575 18.5193 18.3305 17.2639 18.3333 15.9706V14.3043C18.3333 14.0097 18.4738 13.7272 18.7239 13.5189C18.9739 13.3105 19.313 13.1935 19.6667 13.1935H27.6667C28.0203 13.1935 28.3594 13.3105 28.6095 13.5189C28.8595 13.7272 29 14.0097 29 14.3043V15.9706ZM23.6667 15.4152V18.7477ZM21.6667 17.0814H25.6667Z" fill="white"/>
<path d="M9 19.6215L11.1404 17.8383M17.9893 6.42705L19.2729 7.49641M20.5573 8.56651L23.5538 6.0701M25.2658 7.49641L22.2693 9.99282M22.2693 5L26.5502 8.56651M23.6667 15.4152V18.7477M21.6667 17.0814H25.6667M12.424 15.3418L10.2836 17.1251L11.9956 18.5514L14.136 16.7682L12.424 15.3418ZM29 15.9706C29.0028 17.2639 28.4758 18.5193 27.506 19.5293C26.5362 20.5392 25.1818 21.2431 23.6667 21.5247C22.1515 21.2431 20.7971 20.5392 19.8273 19.5293C18.8575 18.5193 18.3305 17.2639 18.3333 15.9706V14.3043C18.3333 14.0097 18.4738 13.7272 18.7239 13.5189C18.9739 13.3105 19.313 13.1935 19.6667 13.1935H27.6667C28.0203 13.1935 28.3594 13.3105 28.6095 13.5189C28.8595 13.7272 29 14.0097 29 14.3043V15.9706Z" stroke="#007F73" stroke-width="1.5" stroke-linecap="round" stroke-linejoin="round"/>
</svg>
