<svg width="40" height="40" viewBox="0 0 40 40" fill="none" xmlns="http://www.w3.org/2000/svg">
<path fill-rule="evenodd" clip-rule="evenodd" d="M23.7979 3.58732C23.1812 3.33398 22.3979 3.33398 20.8329 3.33398C19.2679 3.33398 18.4862 3.33398 17.8679 3.58732C17.461 3.75356 17.0911 3.99862 16.7793 4.3084C16.4675 4.61817 16.2201 4.98654 16.0512 5.39232C15.8945 5.76398 15.8345 6.19898 15.8095 6.83065C15.7977 7.28815 15.6697 7.73512 15.4376 8.12958C15.2055 8.52403 14.877 8.85302 14.4829 9.08565C14.0808 9.30916 13.6288 9.42756 13.1688 9.42989C12.7087 9.43222 12.2556 9.3184 11.8512 9.09898C11.2879 8.80232 10.8795 8.63898 10.4762 8.58565C9.59385 8.47052 8.70166 8.70764 7.99288 9.24565C7.46288 9.64898 7.07122 10.3223 6.28955 11.6673C5.50622 13.0123 5.11622 13.684 5.02788 14.3423C4.91122 15.219 5.15122 16.1056 5.69455 16.8073C5.94122 17.1273 6.28955 17.3957 6.82788 17.7323C7.62288 18.2273 8.13288 19.0707 8.13288 20.0007C8.13288 20.9307 7.62288 21.774 6.82955 22.2673C6.28955 22.6056 5.94122 22.874 5.69288 23.194C5.42549 23.541 5.22913 23.9373 5.11503 24.3603C5.00092 24.7833 4.97131 25.2246 5.02788 25.659C5.11622 26.3157 5.50622 26.989 6.28955 28.334C7.07288 29.679 7.46288 30.3506 7.99288 30.7556C8.69955 31.294 9.59288 31.5307 10.4762 31.4157C10.8795 31.3623 11.2879 31.199 11.8512 30.9023C12.2558 30.6826 12.7092 30.5686 13.1696 30.571C13.6299 30.5733 14.0823 30.6918 14.4845 30.9156C15.2945 31.3823 15.7745 32.2407 15.8095 33.1707C15.8345 33.804 15.8945 34.2373 16.0512 34.609C16.3912 35.4256 17.0445 36.0756 17.8679 36.414C18.4845 36.6673 19.2679 36.6673 20.8329 36.6673C22.3979 36.6673 23.1812 36.6673 23.7979 36.414C24.2047 36.2477 24.5747 36.0027 24.8865 35.6929C25.1983 35.3831 25.4457 35.0148 25.6145 34.609C25.7712 34.2373 25.8312 33.804 25.8562 33.1707C25.8895 32.2407 26.3712 31.3806 27.1829 30.9156C27.585 30.6921 28.037 30.5737 28.497 30.5714C28.957 30.5691 29.4102 30.6829 29.8145 30.9023C30.3779 31.199 30.7862 31.3623 31.1896 31.4157C32.0729 31.5323 32.9662 31.294 33.6729 30.7556C34.2029 30.3523 34.5945 29.679 35.3762 28.334C36.1595 26.989 36.5495 26.3173 36.6379 25.659C36.6942 25.2245 36.6643 24.7831 36.5499 24.3601C36.4356 23.9371 36.2389 23.5409 35.9712 23.194C35.7245 22.874 35.3762 22.6056 34.8379 22.269C34.0429 21.774 33.5329 20.9307 33.5329 20.0007C33.5329 19.0707 34.0429 18.2273 34.8362 17.734C35.3762 17.3957 35.7245 17.1273 35.9729 16.8073C36.2403 16.4603 36.4366 16.064 36.5507 15.641C36.6648 15.218 36.6945 14.7767 36.6379 14.3423C36.5495 13.6856 36.1595 13.0123 35.3762 11.6673C34.5929 10.3223 34.2029 9.65065 33.6729 9.24565C32.9641 8.70764 32.0719 8.47052 31.1896 8.58565C30.7862 8.63898 30.3779 8.80232 29.8145 9.09898C29.41 9.3187 28.9565 9.43268 28.4962 9.43035C28.0358 9.42802 27.5835 9.30945 27.1812 9.08565C26.7874 8.85282 26.4592 8.52374 26.2274 8.1293C25.9957 7.73486 25.8679 7.28799 25.8562 6.83065C25.8312 6.19732 25.7712 5.76398 25.6145 5.39232C25.4457 4.98654 25.1983 4.61817 24.8865 4.3084C24.5747 3.99862 24.2047 3.75356 23.7979 3.58732ZM20.8329 25.0007C23.6162 25.0007 25.8712 22.7623 25.8712 20.0007C25.8712 17.239 23.6145 15.0007 20.8329 15.0007C18.0512 15.0007 15.7945 17.239 15.7945 20.0007C15.7945 22.7623 18.0512 25.0007 20.8329 25.0007Z" fill="#007F73"/>
</svg>
