<svg width="40" height="40" viewBox="0 0 40 40" fill="none" xmlns="http://www.w3.org/2000/svg">
<path d="M18.3334 7.8V14.2667C18.3321 15.0721 18.0926 15.8591 17.6451 16.5287C17.1976 17.1983 16.562 17.7207 15.8184 18.03C15.3265 18.2333 14.799 18.3365 14.2668 18.3333H7.80009C6.72443 18.3289 5.69434 17.8985 4.93529 17.1364C4.17624 16.3742 3.75008 15.3423 3.75009 14.2667V7.81667C3.75008 6.741 4.17624 5.70915 4.93529 4.94698C5.69434 4.18481 6.72443 3.75441 7.80009 3.75H14.2668C15.3424 3.74999 16.3743 4.17615 17.1364 4.9352C17.8986 5.69425 18.329 6.72434 18.3334 7.8ZM36.2501 7.81667V14.2667C36.2536 14.7992 36.1507 15.3271 35.9476 15.8193C35.7443 16.3116 35.4449 16.7583 35.0668 17.1333C34.6943 17.516 34.2484 17.8196 33.7558 18.0258C33.2632 18.232 32.7341 18.3366 32.2001 18.3333H25.7334C24.9299 18.3323 24.1446 18.0942 23.4757 17.6489C22.8069 17.2036 22.2843 16.5709 21.9734 15.83C21.7674 15.3347 21.6631 14.8031 21.6668 14.2667V7.81667C21.6654 7.28295 21.7709 6.75436 21.977 6.26203C22.1831 5.76971 22.4856 5.3236 22.8668 4.95C23.2415 4.57035 23.6878 4.2688 24.1799 4.06282C24.6719 3.85684 25.2 3.75051 25.7334 3.75H32.2001C33.2757 3.75441 34.3058 4.18481 35.0649 4.94698C35.8239 5.70915 36.2501 6.741 36.2501 7.81667ZM18.3334 25.75V32.2C18.329 33.2757 17.8986 34.3058 17.1364 35.0648C16.3743 35.8238 15.3424 36.25 14.2668 36.25H7.80009C6.7261 36.2479 5.69617 35.8228 4.93342 35.0667C4.55528 34.6917 4.25583 34.2449 4.05262 33.7527C3.84942 33.2604 3.74657 32.7325 3.75009 32.2V25.75C3.74657 25.2175 3.84942 24.6896 4.05262 24.1973C4.25583 23.7051 4.55528 23.2583 4.93342 22.8833C5.6928 22.118 6.72208 21.6812 7.80009 21.6667H14.2668C15.3455 21.6754 16.3773 22.109 17.1385 22.8733C17.8997 23.6377 18.3291 24.6713 18.3334 25.75ZM36.2501 28.9667C36.2468 30.4057 35.8173 31.8116 35.0157 33.0068C34.2141 34.202 33.0764 35.1329 31.7463 35.6821C30.4161 36.2313 28.9531 36.3741 27.5418 36.0926C26.1305 35.811 24.8343 35.1177 23.8167 34.1001C22.7991 33.0825 22.1058 31.7863 21.8242 30.375C21.5426 28.9637 21.6855 27.5007 22.2347 26.1705C22.7839 24.8403 23.7148 23.7026 24.91 22.9011C26.1052 22.0995 27.511 21.67 28.9501 21.6667C30.3942 21.6707 31.8049 22.101 33.0054 22.9036C34.206 23.7062 35.1428 24.8454 35.6984 26.1783C36.0651 27.0617 36.2518 28.01 36.2501 28.9667Z" fill="#007F73"/>
</svg>
