<svg width="40" height="42" viewBox="0 0 40 42" fill="none" xmlns="http://www.w3.org/2000/svg">
<path d="M8.74054 0.665169C8.74054 0.665169 21.9904 -0.00748751 20.7588 9.22923C20.7588 9.22923 22.6559 3.08509 30.9892 5.89876C30.9892 5.89876 29.2312 11.9691 22.2487 10.4925C22.2487 10.4925 23.6988 6.01361 28.814 5.84954C28.814 5.84954 24.8509 5.00462 20.6595 9.85267C20.6595 9.85267 18.6928 2.10072 11.3627 1.67415C11.3627 1.67415 18.8319 3.26556 19.0703 10.4925C19.0703 10.5007 8.50216 11.0667 8.74054 0.665169ZM39.7297 26.5542C39.7297 30.5327 38.7663 34.3718 36.5514 37.407C32.3599 39.9417 26.1223 41.3445 19.8649 41.3445C13.6174 41.3445 7.36987 39.9417 3.17838 37.407C0.963446 34.3718 0 30.5327 0 26.5542C0 22.5839 1.75804 18.7859 3.97297 15.7507C8.16446 13.2159 13.6174 11.764 19.8649 11.764C26.1223 11.764 31.5653 13.2077 35.7568 15.7507C37.9717 18.7859 39.7297 22.5839 39.7297 26.5542ZM11.9189 35.1101C11.9189 33.8386 10.6774 32.8132 9.13784 32.8132C7.59831 32.8132 6.35676 33.8386 6.35676 35.1101C6.35676 36.3816 7.59831 37.407 9.13784 37.407C10.6774 37.407 11.9189 36.3816 11.9189 35.1101ZM11.9189 29.6796C11.9189 28.4081 10.6774 27.3827 9.13784 27.3827C7.59831 27.3827 6.35676 28.4081 6.35676 29.6796C6.35676 30.9511 7.59831 31.9765 9.13784 31.9765C10.6774 31.9765 11.9189 30.9511 11.9189 29.6796ZM11.9189 24.2492C11.9189 22.9777 10.6774 21.9523 9.13784 21.9523C7.59831 21.9523 6.35676 22.9777 6.35676 24.2492C6.35676 25.5206 7.59831 26.546 9.13784 26.546C10.6774 26.546 11.9189 25.5206 11.9189 24.2492ZM19.0703 35.1101C19.0703 33.8386 17.8287 32.8132 16.2892 32.8132C14.7497 32.8132 13.5081 33.8386 13.5081 35.1101C13.5081 36.3816 14.7497 37.407 16.2892 37.407C17.8287 37.407 19.0703 36.3816 19.0703 35.1101ZM19.0703 29.6796C19.0703 28.4081 17.8287 27.3827 16.2892 27.3827C14.7497 27.3827 13.5081 28.4081 13.5081 29.6796C13.5081 30.9511 14.7497 31.9765 16.2892 31.9765C17.8287 31.9765 19.0703 30.9511 19.0703 29.6796ZM19.0703 24.2492C19.0703 22.9777 17.8287 21.9523 16.2892 21.9523C14.7497 21.9523 13.5081 22.9777 13.5081 24.2492C13.5081 25.5206 14.7497 26.546 16.2892 26.546C17.8287 26.546 19.0703 25.5206 19.0703 24.2492ZM26.2216 35.1101C26.2216 33.8386 24.9801 32.8132 23.4405 32.8132C21.901 32.8132 20.6595 33.8386 20.6595 35.1101C20.6595 36.3816 21.901 37.407 23.4405 37.407C24.9801 37.407 26.2216 36.3816 26.2216 35.1101ZM26.2216 29.6796C26.2216 28.4081 24.9801 27.3827 23.4405 27.3827C21.901 27.3827 20.6595 28.4081 20.6595 29.6796C20.6595 30.9511 21.901 31.9765 23.4405 31.9765C24.9801 31.9765 26.2216 30.9511 26.2216 29.6796ZM26.2216 24.2492C26.2216 22.9777 24.9801 21.9523 23.4405 21.9523C21.901 21.9523 20.6595 22.9777 20.6595 24.2492C20.6595 25.5206 21.901 26.546 23.4405 26.546C24.9801 26.546 26.2216 25.5206 26.2216 24.2492ZM33.373 35.1101C33.373 33.8386 32.1314 32.8132 30.5919 32.8132C29.0524 32.8132 27.8108 33.8386 27.8108 35.1101C27.8108 36.3816 29.0524 37.407 30.5919 37.407C32.1314 37.407 33.373 36.3816 33.373 35.1101ZM33.373 29.6796C33.373 28.4081 32.1314 27.3827 30.5919 27.3827C29.0524 27.3827 27.8108 28.4081 27.8108 29.6796C27.8108 30.9511 29.0524 31.9765 30.5919 31.9765C32.1314 31.9765 33.373 30.9511 33.373 29.6796ZM33.373 24.2492C33.373 22.9777 32.1314 21.9523 30.5919 21.9523C29.0524 21.9523 27.8108 22.9777 27.8108 24.2492C27.8108 25.5206 29.0524 26.546 30.5919 26.546C32.1314 26.546 33.373 25.5206 33.373 24.2492ZM35.7568 21.0007C35.28 19.1714 35.0218 17.9738 34.1676 16.407C30.3138 14.7745 25.1787 13.782 19.8649 13.782C14.551 13.782 9.41595 14.7745 5.56216 16.407C4.68811 18.0066 4.44973 19.1878 3.97297 21.0007C8.16446 20.3527 13.7763 19.7867 19.8649 19.7867C25.9534 19.7867 31.5653 20.3527 35.7568 21.0007Z" fill="#007F73"/>
</svg>
