<svg width="37" height="35" viewBox="0 0 37 35" fill="none" xmlns="http://www.w3.org/2000/svg">
<path d="M11.125 13.75C12.9484 13.75 14.697 13.0257 15.9864 11.7364C17.2757 10.447 18 8.69836 18 6.875C18 5.05164 17.2757 3.30295 15.9864 2.01364C14.697 0.724328 12.9484 0 11.125 0C9.30164 0 7.55295 0.724328 6.26364 2.01364C4.97433 3.30295 4.25 5.05164 4.25 6.875C4.25 8.69836 4.97433 10.447 6.26364 11.7364C7.55295 13.0257 9.30164 13.75 11.125 13.75ZM26.75 13.75C28.0761 13.75 29.3479 13.2232 30.2855 12.2855C31.2232 11.3479 31.75 10.0761 31.75 8.75C31.75 7.42392 31.2232 6.15215 30.2855 5.21447C29.3479 4.27678 28.0761 3.75 26.75 3.75C25.4239 3.75 24.1521 4.27678 23.2145 5.21447C22.2768 6.15215 21.75 7.42392 21.75 8.75C21.75 10.0761 22.2768 11.3479 23.2145 12.2855C24.1521 13.2232 25.4239 13.75 26.75 13.75ZM15.5 25C15.5 21.61 17 18.5713 19.37 16.5088C18.9335 16.3376 18.4688 16.2499 18 16.25H4.25C3.25544 16.25 2.30161 16.6451 1.59835 17.3483C0.895088 18.0516 0.5 19.0054 0.5 20V20.1875C0.5 20.1875 0.5 27.5 11.125 27.5C12.9275 27.5 14.425 27.29 15.6663 26.94C15.5549 26.2994 15.4992 25.6503 15.5 25ZM26.75 34.375C29.2364 34.375 31.621 33.3873 33.3791 31.6291C35.1373 29.871 36.125 27.4864 36.125 25C36.125 22.5136 35.1373 20.129 33.3791 18.3709C31.621 16.6127 29.2364 15.625 26.75 15.625C24.2636 15.625 21.879 16.6127 20.1209 18.3709C18.3627 20.129 17.375 22.5136 17.375 25C17.375 27.4864 18.3627 29.871 20.1209 31.6291C21.879 33.3873 24.2636 34.375 26.75 34.375ZM28 19.0625V23.75H32.6875C32.9361 23.75 33.1746 23.8488 33.3504 24.0246C33.5262 24.2004 33.625 24.4389 33.625 24.6875C33.625 24.9361 33.5262 25.1746 33.3504 25.3504C33.1746 25.5262 32.9361 25.625 32.6875 25.625H28V30.3125C28 30.5611 27.9012 30.7996 27.7254 30.9754C27.5496 31.1512 27.3111 31.25 27.0625 31.25C26.8139 31.25 26.5754 31.1512 26.3996 30.9754C26.2238 30.7996 26.125 30.5611 26.125 30.3125V25.625H21.4375C21.1889 25.625 20.9504 25.5262 20.7746 25.3504C20.5988 25.1746 20.5 24.9361 20.5 24.6875C20.5 24.4389 20.5988 24.2004 20.7746 24.0246C20.9504 23.8488 21.1889 23.75 21.4375 23.75H26.125V19.0625C26.125 18.8139 26.2238 18.5754 26.3996 18.3996C26.5754 18.2238 26.8139 18.125 27.0625 18.125C27.3111 18.125 27.5496 18.2238 27.7254 18.3996C27.9012 18.5754 28 18.8139 28 19.0625Z" fill="#007F73"/>
</svg>
