<svg width="41" height="41" viewBox="0 0 41 41" fill="none" xmlns="http://www.w3.org/2000/svg">
<g filter="url(#filter0_b_1929_6750)">
<rect x="0.5" y="0.5" width="40" height="40" rx="7" fill="white"/>
<rect x="0.6" y="0.6" width="39.8" height="39.8" rx="6.9" stroke="black" stroke-width="0.2"/>
</g>
<path d="M11.95 15.2246C11.95 14.3295 12.3055 13.4711 12.9385 12.8381C13.5714 12.2052 14.4298 11.8496 15.325 11.8496C16.2201 11.8496 17.0785 12.2052 17.7114 12.8381C18.3444 13.4711 18.7 14.3295 18.7 15.2246C18.7 16.1197 18.3444 16.9782 17.7114 17.6111C17.0785 18.244 16.2201 18.5996 15.325 18.5996C14.4298 18.5996 13.5714 18.244 12.9385 17.6111C12.3055 16.9782 11.95 16.1197 11.95 15.2246ZM15.325 10.3496C14.032 10.3496 12.792 10.8632 11.8778 11.7775C10.9636 12.6917 10.45 13.9317 10.45 15.2246C10.45 16.5175 10.9636 17.7575 11.8778 18.6718C12.792 19.586 14.032 20.0996 15.325 20.0996C16.6179 20.0996 17.8579 19.586 18.7721 18.6718C19.6863 17.7575 20.2 16.5175 20.2 15.2246C20.2 13.9317 19.6863 12.6917 18.7721 11.7775C17.8579 10.8632 16.6179 10.3496 15.325 10.3496ZM7.44995 24.5996C7.44995 23.804 7.76602 23.0409 8.32863 22.4783C8.89124 21.9157 9.6543 21.5996 10.45 21.5996H20.2C20.7223 21.5992 21.2358 21.7352 21.6895 21.9941C21.2735 22.3401 20.8945 22.7226 20.5525 23.1416C20.437 23.1137 20.3187 23.0996 20.2 23.0996H10.45C10.0521 23.0996 9.6706 23.2576 9.38929 23.5389C9.10799 23.8203 8.94995 24.2018 8.94995 24.5996V24.7166L8.96045 24.8411C9.04185 25.5601 9.29834 26.2482 9.70745 26.8451C10.438 27.9011 11.9695 29.0996 15.325 29.0996C16.756 29.0996 17.8555 28.8821 18.703 28.5491C18.716 29.0741 18.776 29.5841 18.883 30.0791C17.914 30.4046 16.7425 30.5996 15.325 30.5996C11.5555 30.5996 9.52445 29.2196 8.47295 27.6986C7.9193 26.8919 7.57402 25.9607 7.46795 24.9881C7.45939 24.9008 7.45339 24.8133 7.44995 24.7256V24.5996ZM24.7 16.3496C24.7 15.7529 24.937 15.1806 25.359 14.7586C25.7809 14.3367 26.3532 14.0996 26.95 14.0996C27.5467 14.0996 28.119 14.3367 28.5409 14.7586C28.9629 15.1806 29.2 15.7529 29.2 16.3496C29.2 16.9463 28.9629 17.5186 28.5409 17.9406C28.119 18.3626 27.5467 18.5996 26.95 18.5996C26.3532 18.5996 25.7809 18.3626 25.359 17.9406C24.937 17.5186 24.7 16.9463 24.7 16.3496ZM26.95 12.5996C25.9554 12.5996 25.0016 12.9947 24.2983 13.698C23.595 14.4012 23.2 15.355 23.2 16.3496C23.2 17.3442 23.595 18.298 24.2983 19.0013C25.0016 19.7045 25.9554 20.0996 26.95 20.0996C27.9445 20.0996 28.8983 19.7045 29.6016 19.0013C30.3049 18.298 30.7 17.3442 30.7 16.3496C30.7 15.355 30.3049 14.4012 29.6016 13.698C28.8983 12.9947 27.9445 12.5996 26.95 12.5996ZM33.7 28.3496C33.7 30.1398 32.9888 31.8567 31.7229 33.1226C30.4571 34.3885 28.7402 35.0996 26.95 35.0996C25.1597 35.0996 23.4429 34.3885 22.177 33.1226C20.9111 31.8567 20.2 30.1398 20.2 28.3496C20.2 26.5594 20.9111 24.8425 22.177 23.5766C23.4429 22.3108 25.1597 21.5996 26.95 21.5996C28.7402 21.5996 30.4571 22.3108 31.7229 23.5766C32.9888 24.8425 33.7 26.5594 33.7 28.3496ZM27.7 25.3496C27.7 25.1507 27.6209 24.9599 27.4803 24.8193C27.3396 24.6786 27.1489 24.5996 26.95 24.5996C26.751 24.5996 26.5603 24.6786 26.4196 24.8193C26.279 24.9599 26.2 25.1507 26.2 25.3496V27.5996H23.95C23.751 27.5996 23.5603 27.6786 23.4196 27.8193C23.279 27.9599 23.2 28.1507 23.2 28.3496C23.2 28.5485 23.279 28.7393 23.4196 28.8799C23.5603 29.0206 23.751 29.0996 23.95 29.0996H26.2V31.3496C26.2 31.5485 26.279 31.7393 26.4196 31.8799C26.5603 32.0206 26.751 32.0996 26.95 32.0996C27.1489 32.0996 27.3396 32.0206 27.4803 31.8799C27.6209 31.7393 27.7 31.5485 27.7 31.3496V29.0996H29.95C30.1489 29.0996 30.3396 29.0206 30.4803 28.8799C30.6209 28.7393 30.7 28.5485 30.7 28.3496C30.7 28.1507 30.6209 27.9599 30.4803 27.8193C30.3396 27.6786 30.1489 27.5996 29.95 27.5996H27.7V25.3496Z" fill="#1E1E1E"/>
<defs>
<filter id="filter0_b_1929_6750" x="-0.5" y="-0.5" width="42" height="42" filterUnits="userSpaceOnUse" color-interpolation-filters="sRGB">
<feFlood flood-opacity="0" result="BackgroundImageFix"/>
<feGaussianBlur in="BackgroundImageFix" stdDeviation="0.5"/>
<feComposite in2="SourceAlpha" operator="in" result="effect1_backgroundBlur_1929_6750"/>
<feBlend mode="normal" in="SourceGraphic" in2="effect1_backgroundBlur_1929_6750" result="shape"/>
</filter>
</defs>
</svg>
