<svg width="27" height="26" viewBox="0 0 27 26" fill="none" xmlns="http://www.w3.org/2000/svg">
<path d="M4.75 5.625C4.75 4.72989 5.10558 3.87145 5.73851 3.23851C6.37145 2.60558 7.22989 2.25 8.125 2.25C9.02011 2.25 9.87855 2.60558 10.5115 3.23851C11.1444 3.87145 11.5 4.72989 11.5 5.625C11.5 6.52011 11.1444 7.37855 10.5115 8.01149C9.87855 8.64442 9.02011 9 8.125 9C7.22989 9 6.37145 8.64442 5.73851 8.01149C5.10558 7.37855 4.75 6.52011 4.75 5.625ZM8.125 0.75C6.83207 0.75 5.59209 1.26361 4.67785 2.17785C3.76361 3.09209 3.25 4.33207 3.25 5.625C3.25 6.91793 3.76361 8.15791 4.67785 9.07215C5.59209 9.98639 6.83207 10.5 8.125 10.5C9.41793 10.5 10.6579 9.98639 11.5721 9.07215C12.4864 8.15791 13 6.91793 13 5.625C13 4.33207 12.4864 3.09209 11.5721 2.17785C10.6579 1.26361 9.41793 0.75 8.125 0.75ZM0.25 15C0.25 14.2044 0.56607 13.4413 1.12868 12.8787C1.69129 12.3161 2.45435 12 3.25 12H13C13.5224 11.9996 14.0358 12.1356 14.4895 12.3945C14.0735 12.7405 13.6945 13.123 13.3525 13.542C13.2371 13.5141 13.1187 13.5 13 13.5H3.25C2.85218 13.5 2.47064 13.658 2.18934 13.9393C1.90804 14.2206 1.75 14.6022 1.75 15V15.117L1.7605 15.2415C1.8419 15.9605 2.09839 16.6486 2.5075 17.2455C3.238 18.3015 4.7695 19.5 8.125 19.5C9.556 19.5 10.6555 19.2825 11.503 18.9495C11.516 19.4745 11.576 19.9845 11.683 20.4795C10.714 20.805 9.5425 21 8.125 21C4.3555 21 2.3245 19.62 1.273 18.099C0.719348 17.2923 0.374071 16.3611 0.268 15.3885C0.259443 15.3012 0.25344 15.2137 0.25 15.126V15ZM17.5 6.75C17.5 6.15326 17.7371 5.58097 18.159 5.15901C18.581 4.73705 19.1533 4.5 19.75 4.5C20.3467 4.5 20.919 4.73705 21.341 5.15901C21.7629 5.58097 22 6.15326 22 6.75C22 7.34674 21.7629 7.91903 21.341 8.34099C20.919 8.76295 20.3467 9 19.75 9C19.1533 9 18.581 8.76295 18.159 8.34099C17.7371 7.91903 17.5 7.34674 17.5 6.75ZM19.75 3C18.7554 3 17.8016 3.39509 17.0984 4.09835C16.3951 4.80161 16 5.75544 16 6.75C16 7.74456 16.3951 8.69839 17.0984 9.40165C17.8016 10.1049 18.7554 10.5 19.75 10.5C20.7446 10.5 21.6984 10.1049 22.4016 9.40165C23.1049 8.69839 23.5 7.74456 23.5 6.75C23.5 5.75544 23.1049 4.80161 22.4016 4.09835C21.6984 3.39509 20.7446 3 19.75 3ZM26.5 18.75C26.5 20.5402 25.7888 22.2571 24.523 23.523C23.2571 24.7888 21.5402 25.5 19.75 25.5C17.9598 25.5 16.2429 24.7888 14.977 23.523C13.7112 22.2571 13 20.5402 13 18.75C13 16.9598 13.7112 15.2429 14.977 13.977C16.2429 12.7112 17.9598 12 19.75 12C21.5402 12 23.2571 12.7112 24.523 13.977C25.7888 15.2429 26.5 16.9598 26.5 18.75ZM20.5 15.75C20.5 15.5511 20.421 15.3603 20.2803 15.2197C20.1397 15.079 19.9489 15 19.75 15C19.5511 15 19.3603 15.079 19.2197 15.2197C19.079 15.3603 19 15.5511 19 15.75V18H16.75C16.5511 18 16.3603 18.079 16.2197 18.2197C16.079 18.3603 16 18.5511 16 18.75C16 18.9489 16.079 19.1397 16.2197 19.2803C16.3603 19.421 16.5511 19.5 16.75 19.5H19V21.75C19 21.9489 19.079 22.1397 19.2197 22.2803C19.3603 22.421 19.5511 22.5 19.75 22.5C19.9489 22.5 20.1397 22.421 20.2803 22.2803C20.421 22.1397 20.5 21.9489 20.5 21.75V19.5H22.75C22.9489 19.5 23.1397 19.421 23.2803 19.2803C23.421 19.1397 23.5 18.9489 23.5 18.75C23.5 18.5511 23.421 18.3603 23.2803 18.2197C23.1397 18.079 22.9489 18 22.75 18H20.5V15.75Z" fill="#1E1E1E"/>
</svg>
