<svg width="25" height="25" viewBox="0 0 25 25" fill="none" xmlns="http://www.w3.org/2000/svg">
<path d="M12.5 17.3795L15.808 14.0725L15.1 13.3645L13 15.4645V10.7645H12V15.4645L9.9 13.3645L9.192 14.0725L12.5 17.3795ZM5.5 7.9955V18.5725C5.5 18.7518 5.55767 18.8992 5.673 19.0145C5.78833 19.1298 5.936 19.1875 6.116 19.1875H18.885C19.0643 19.1875 19.2117 19.1298 19.327 19.0145C19.4423 18.8992 19.5 18.7518 19.5 18.5725V7.9955H5.5ZM6.27 20.1875C5.822 20.1875 5.415 20.0045 5.049 19.6385C4.683 19.2725 4.5 18.8658 4.5 18.4185V7.6735C4.5 7.47883 4.531 7.2955 4.593 7.1235C4.655 6.9515 4.74833 6.79317 4.873 6.6485L6.431 4.7785C6.57567 4.58317 6.75667 4.43583 6.974 4.3365C7.19133 4.23717 7.42433 4.1875 7.673 4.1875H17.289C17.537 4.1875 17.773 4.23717 17.997 4.3365C18.221 4.43583 18.4053 4.58283 18.55 4.7775L20.127 6.6875C20.2517 6.83217 20.345 6.99383 20.407 7.1725C20.469 7.3505 20.5 7.53717 20.5 7.7325V18.4175C20.5 18.8648 20.317 19.2715 19.951 19.6375C19.585 20.0035 19.1783 20.1865 18.731 20.1865L6.27 20.1875ZM5.88 6.9955H19.1L17.77 5.3975C17.7053 5.3335 17.6313 5.2825 17.548 5.2445C17.4647 5.2065 17.378 5.1875 17.288 5.1875H7.692C7.60267 5.1875 7.516 5.20683 7.432 5.2455C7.348 5.28417 7.27467 5.3355 7.212 5.3995L5.88 6.9955Z" fill="#545454"/>
</svg>
