<svg width="24" height="24" viewBox="0 0 24 24" fill="none" xmlns="http://www.w3.org/2000/svg">
<path d="M0.75 4.8125C0.75 3.73506 1.17801 2.70175 1.93988 1.93988C2.70175 1.17801 3.73506 0.75 4.8125 0.75H19.1875C20.2649 0.75 21.2983 1.17801 22.0601 1.93988C22.822 2.70175 23.25 3.73506 23.25 4.8125V19.1875C23.25 20.2649 22.822 21.2983 22.0601 22.0601C21.2983 22.822 20.2649 23.25 19.1875 23.25H4.8125C3.73506 23.25 2.70175 22.822 1.93988 22.0601C1.17801 21.2983 0.75 20.2649 0.75 19.1875V4.8125ZM4.8125 2.625C4.23234 2.625 3.67594 2.85547 3.2657 3.2657C2.85547 3.67594 2.625 4.23234 2.625 4.8125V7.625H7.625V2.625H4.8125ZM2.625 9.5V14.5H7.625V9.5H2.625ZM9.5 9.5V14.5H14.5V9.5H9.5ZM16.375 9.5V14.5H21.375V9.5H16.375ZM14.5 16.375H9.5V21.375H14.5V16.375ZM16.375 21.375H19.1875C19.7677 21.375 20.3241 21.1445 20.7343 20.7343C21.1445 20.3241 21.375 19.7677 21.375 19.1875V16.375H16.375V21.375ZM16.375 7.625H21.375V4.8125C21.375 4.23234 21.1445 3.67594 20.7343 3.2657C20.3241 2.85547 19.7677 2.625 19.1875 2.625H16.375V7.625ZM14.5 2.625H9.5V7.625H14.5V2.625ZM2.625 16.375V19.1875C2.625 20.395 3.605 21.375 4.8125 21.375H7.625V16.375H2.625Z" fill="black"/>
</svg>
