<svg width="40" height="40" viewBox="0 0 40 40" fill="none" xmlns="http://www.w3.org/2000/svg">
<path d="M35.5 18.3818V18.6006L35.6607 18.7491C38.0481 20.9545 39.5 23.9524 39.5 27.2727C39.5 33.9892 33.5098 39.5 26 39.5C22.3015 39.5 18.9806 38.1625 16.5534 35.991L16.411 35.8636H16.22H4C3.05718 35.8636 2.16143 35.5227 1.50791 34.9286C0.855972 34.3359 0.5 33.5429 0.5 32.7273V7.27273C0.5 5.59265 2.03023 4.13636 4 4.13636H12.36H12.6991L12.8245 3.82137C13.5848 1.91245 15.5938 0.5 18 0.5C20.4062 0.5 22.4152 1.91245 23.1755 3.82137L23.3009 4.13636H23.64H32C32.9428 4.13636 33.8386 4.47729 34.4921 5.0714C35.144 5.66407 35.5 6.45712 35.5 7.27273V18.3818ZM3.5 32.7273V33.2273H4H13.36H14.1834L13.8036 32.4967C12.9774 30.9071 12.5 29.1493 12.5 27.2727C12.5 26.6873 12.5568 26.1152 12.6532 25.5367L12.7502 24.9545H12.16H8.5V22.3182H13.36H13.6614L13.8022 22.0516C14.498 20.7338 15.3813 19.5495 16.5268 18.5602L17.5439 17.6818H16.2H8.5V15.0455H26C28.0888 15.0455 30.0419 15.4849 31.8027 16.2412L32.5 16.5408V15.7818V7.27273V6.77273H32H28H27.5V7.27273V10.4091H8.5V7.27273V6.77273H8H4H3.5V7.27273V32.7273ZM26.5 27.7273V28.0263L26.7634 28.1677L31.9957 30.9785L31.0601 32.362L24.5 28.7937V20.5H26.5V27.7273ZM20.5 5.45455C20.5 4.13463 19.3302 3.13636 18 3.13636C16.6698 3.13636 15.5 4.13463 15.5 5.45455C15.5 6.77447 16.6698 7.77273 18 7.77273C19.3302 7.77273 20.5 6.77447 20.5 5.45455ZM15.5 27.2727C15.5 32.6108 20.2498 36.8636 26 36.8636C31.7502 36.8636 36.5 32.6108 36.5 27.2727C36.5 21.9346 31.7502 17.6818 26 17.6818C20.2498 17.6818 15.5 21.9346 15.5 27.2727Z" fill="white" stroke="#545454"/>
</svg>
