<svg width="35" height="40" viewBox="0 0 35 40" fill="none" xmlns="http://www.w3.org/2000/svg">
<rect width="35" height="40" fill="white"/>
<path d="M30.625 20V7.5C30.625 6.11929 29.6457 5 28.4375 5H6.5625C5.35438 5 4.375 6.11929 4.375 7.5V32.5C4.375 33.8807 5.35438 35 6.5625 35H17.5" stroke="#545454" stroke-width="2" stroke-linecap="round" stroke-linejoin="round"/>
<path d="M23.334 31.666C25.7502 31.666 27.709 29.4274 27.709 26.666C27.709 23.9046 25.7502 21.666 23.334 21.666C20.9177 21.666 18.959 23.9046 18.959 26.666C18.959 29.4274 20.9177 31.666 23.334 31.666Z" fill="#545454" stroke="#545454" stroke-width="2"/>
<path d="M26.9785 30L30.6243 33.3333" stroke="#545454" stroke-width="2" stroke-linecap="round" stroke-linejoin="round"/>
<path d="M10.209 13.334H24.7923" stroke="#545454" stroke-width="2" stroke-linecap="round" stroke-linejoin="round"/>
<path d="M10.209 20H16.0423" stroke="#545454" stroke-width="2" stroke-linecap="round" stroke-linejoin="round"/>
</svg>
