<svg width="36" height="40" viewBox="0 0 36 40" fill="none" xmlns="http://www.w3.org/2000/svg">
<path fill-rule="evenodd" clip-rule="evenodd" d="M12.375 7.5V3.75H23.625V7.5H12.375ZM8.625 7.5V2.5C8.625 1.83696 8.88839 1.20107 9.35723 0.732233C9.82607 0.263392 10.462 0 11.125 0L24.875 0C25.538 0 26.1739 0.263392 26.6428 0.732233C27.1116 1.20107 27.375 1.83696 27.375 2.5V7.5H33.625C34.1223 7.5 34.5992 7.69754 34.9508 8.04917C35.3025 8.40081 35.5 8.87772 35.5 9.375C35.5 9.87228 35.3025 10.3492 34.9508 10.7008C34.5992 11.0525 34.1223 11.25 33.625 11.25H32.7125L30.855 35.3825C30.7586 36.6386 30.1916 37.8121 29.2674 38.6682C28.3432 39.5243 27.1298 39.9999 25.87 40H10.13C8.87019 39.9999 7.65685 39.5243 6.73261 38.6682C5.80837 37.8121 5.24138 36.6386 5.145 35.3825L3.2875 11.25H2.375C1.87772 11.25 1.40081 11.0525 1.04917 10.7008C0.697544 10.3492 0.5 9.87228 0.5 9.375C0.5 8.87772 0.697544 8.40081 1.04917 8.04917C1.40081 7.69754 1.87772 7.5 2.375 7.5H8.625ZM7.05 11.25H28.95L27.115 35.095C27.0911 35.4089 26.9496 35.7023 26.7188 35.9164C26.4879 36.1305 26.1848 36.2497 25.87 36.25H10.13C9.81516 36.2497 9.51205 36.1305 9.28124 35.9164C9.05044 35.7023 8.90893 35.4089 8.885 35.095L7.05 11.25Z" fill="#545454"/>
</svg>
