<svg width="16" height="17" viewBox="0 0 16 17" fill="none" xmlns="http://www.w3.org/2000/svg">
<path d="M15.1809 1.26082C14.9074 0.97319 14.5791 0.743206 14.2153 0.584408C13.8516 0.425609 13.4597 0.341209 13.0628 0.336177C12.6659 0.331144 12.2721 0.405583 11.9044 0.555107C11.5367 0.704631 11.2027 0.926218 10.9219 1.20682L1.54693 10.5818C1.21934 10.9095 0.991803 11.3236 0.890934 11.7758L0.0139339 15.7258C-0.00436644 15.8079 -0.00166534 15.8933 0.0217869 15.974C0.0452391 16.0548 0.0886847 16.1284 0.148103 16.1879C0.207522 16.2474 0.280994 16.291 0.36172 16.3145C0.442446 16.3381 0.527817 16.341 0.609934 16.3228L4.53693 15.4498C5.00473 15.3467 5.43305 15.1114 5.77093 14.7718L15.1289 5.41382C15.6774 4.86506 15.9899 4.12372 15.9996 3.34789C16.0093 2.57206 15.7155 1.82314 15.1809 1.26082ZM11.6289 1.91382C11.8118 1.72826 12.0297 1.58073 12.2698 1.47973C12.51 1.37873 12.7678 1.32625 13.0284 1.32532C13.2889 1.32438 13.5471 1.37501 13.788 1.47429C14.0289 1.57357 14.2477 1.71953 14.432 1.90377C14.6162 2.08801 14.7622 2.30688 14.8615 2.54778C14.9607 2.78867 15.0114 3.04683 15.0104 3.30738C15.0095 3.56793 14.957 3.82573 14.856 4.0659C14.755 4.30608 14.6075 4.5239 14.4219 4.70682L13.7509 5.37782L10.9579 2.58582L11.6289 1.91382ZM10.2509 3.29382L13.0439 6.08582L5.06393 14.0658C4.8605 14.271 4.60215 14.413 4.31993 14.4748L1.15993 15.1768L1.86793 11.9938C1.92693 11.7268 2.06093 11.4828 2.25393 11.2898L10.2509 3.29382Z" fill="#545454"/>
</svg>
