<svg width="21" height="21" viewBox="0 0 21 21" fill="none" xmlns="http://www.w3.org/2000/svg">
<path d="M17.6809 3.11433C17.4074 2.82671 17.0791 2.59672 16.7153 2.43792C16.3516 2.27913 15.9597 2.19472 15.5628 2.18969C15.1659 2.18466 14.7721 2.2591 14.4044 2.40862C14.0367 2.55815 13.7027 2.77973 13.4219 3.06033L4.04693 12.4353C3.71934 12.763 3.4918 13.1771 3.39093 13.6293L2.51393 17.5793C2.49563 17.6614 2.49833 17.7468 2.52179 17.8276C2.54524 17.9083 2.58868 17.9819 2.6481 18.0414C2.70752 18.1009 2.78099 18.1445 2.86172 18.1681C2.94245 18.1917 3.02782 18.1945 3.10993 18.1763L7.03693 17.3033C7.50473 17.2002 7.93305 16.9649 8.27093 16.6253L17.6289 7.26733C18.1774 6.71857 18.4899 5.97724 18.4996 5.20141C18.5093 4.42558 18.2155 3.67665 17.6809 3.11433ZM14.1289 3.76733C14.3118 3.58178 14.5297 3.43425 14.7698 3.33325C15.01 3.23225 15.2678 3.17977 15.5284 3.17883C15.7889 3.1779 16.0471 3.22853 16.288 3.32781C16.5289 3.42708 16.7477 3.57305 16.932 3.75728C17.1162 3.94152 17.2622 4.16039 17.3615 4.40129C17.4607 4.64219 17.5114 4.90035 17.5104 5.1609C17.5095 5.42145 17.457 5.67924 17.356 5.91942C17.255 6.1596 17.1075 6.37742 16.9219 6.56033L16.2509 7.23133L13.4579 4.43933L14.1289 3.76733ZM12.7509 5.14733L15.5439 7.93933L7.56393 15.9193C7.3605 16.1245 7.10215 16.2665 6.81993 16.3283L3.65993 17.0303L4.36793 13.8473C4.42693 13.5803 4.56093 13.3363 4.75393 13.1433L12.7509 5.14733Z" fill="#545454"/>
</svg>
