<svg width="20" height="20" viewBox="0 0 20 20" fill="none" xmlns="http://www.w3.org/2000/svg">
<path d="M15.6634 3.33398H4.33673C4.17653 3.33385 4.01968 3.37989 3.88497 3.4666C3.75027 3.55331 3.64341 3.67702 3.57719 3.8229C3.51098 3.96878 3.48822 4.13065 3.51164 4.28913C3.53506 4.44762 3.60366 4.59599 3.70923 4.71648L8.12757 9.76482C8.26045 9.91689 8.3336 10.112 8.3334 10.314V14.3757C8.3334 14.4403 8.34846 14.5041 8.37739 14.562C8.40632 14.6198 8.44832 14.6702 8.50007 14.709L11.0001 16.584C11.062 16.6304 11.1356 16.6587 11.2126 16.6656C11.2897 16.6726 11.3672 16.6579 11.4364 16.6233C11.5056 16.5887 11.5638 16.5355 11.6045 16.4697C11.6452 16.4039 11.6667 16.328 11.6667 16.2507V10.314C11.6665 10.112 11.7397 9.91689 11.8726 9.76482L16.2909 4.71565C16.7626 4.17732 16.3792 3.33398 15.6634 3.33398Z" stroke="black" stroke-width="1.66667" stroke-linecap="round"/>
</svg>
