<svg width="40" height="40" viewBox="0 0 40 40" fill="none" xmlns="http://www.w3.org/2000/svg">
<path d="M32.2287 26.6849C32.7656 26.1751 33.1931 25.5613 33.4852 24.881C33.7773 24.2007 33.928 23.4681 33.928 22.7277C33.928 21.9874 33.7773 21.2547 33.4852 20.5744C33.1931 19.8942 32.7656 19.2804 32.2287 18.7706C31.1297 17.7276 29.6724 17.1461 28.1573 17.1461C26.6421 17.1461 25.1848 17.7276 24.0858 18.7706L20.0001 22.8563L15.9144 18.7706C14.8155 17.7276 13.3581 17.1461 11.843 17.1461C10.3279 17.1461 8.87052 17.7276 7.77156 18.7706C7.2347 19.2804 6.80719 19.8942 6.51505 20.5744C6.22292 21.2547 6.07227 21.9874 6.07227 22.7277C6.07227 23.4681 6.22292 24.2007 6.51505 24.881C6.80719 25.5613 7.2347 26.1751 7.77156 26.6849L20.0001 38.5706L32.2287 26.6849ZM20.0001 12.8563C21.5157 12.8563 22.9691 12.2543 24.0407 11.1826C25.1124 10.111 25.7144 8.65754 25.7144 7.14202C25.7144 5.6265 25.1124 4.17305 24.0407 3.10141C22.9691 2.02977 21.5157 1.42773 20.0001 1.42773C18.4846 1.42773 17.0312 2.02977 15.9595 3.10141C14.8879 4.17305 14.2858 5.6265 14.2858 7.14202C14.2858 8.65754 14.8879 10.111 15.9595 11.1826C17.0312 12.2543 18.4846 12.8563 20.0001 12.8563Z" stroke="#545454" stroke-width="2.85714" stroke-linecap="round" stroke-linejoin="round"/>
</svg>
