<svg width="40" height="40" viewBox="0 0 40 40" fill="none" xmlns="http://www.w3.org/2000/svg">
<path d="M33.333 26.6673V6.66732H13.333V26.6673M36.6663 26.6673C36.6663 28.5007 35.1663 30.0007 33.333 30.0007H13.333C11.4997 30.0007 9.99967 28.5007 9.99967 26.6673V6.66732C9.99967 4.83398 11.4997 3.33398 13.333 3.33398H33.333C35.1663 3.33398 36.6663 4.83398 36.6663 6.66732M26.6663 33.334V36.6673H6.66634C4.83301 36.6673 3.33301 35.1673 3.33301 33.334V11.6673H6.66634V33.334M26.6663 18.334H29.9997V23.334H26.6663M21.6663 10.0007H24.9997V23.334H21.6663M16.6663 13.334H19.9997V23.334H16.6663V13.334Z" fill="#545454"/>
</svg>
