<svg width="40" height="40" viewBox="0 0 40 40" fill="none" xmlns="http://www.w3.org/2000/svg">
<mask id="mask0_656_843" style="mask-type:alpha" maskUnits="userSpaceOnUse" x="0" y="0" width="40" height="40">
<rect width="40" height="40" fill="#D9D9D9"/>
</mask>
<g mask="url(#mask0_656_843)">
<path d="M19.9987 15.0002C18.3876 15.0002 17.0126 14.4307 15.8737 13.2918C14.7348 12.1529 14.1654 10.7779 14.1654 9.16683C14.1654 7.55572 14.7348 6.18072 15.8737 5.04183C17.0126 3.90294 18.3876 3.3335 19.9987 3.3335C21.6098 3.3335 22.9848 3.90294 24.1237 5.04183C25.2626 6.18072 25.832 7.55572 25.832 9.16683C25.832 10.7779 25.2626 12.1529 24.1237 13.2918C22.9848 14.4307 21.6098 15.0002 19.9987 15.0002ZM19.9987 11.6668C20.6931 11.6668 21.2834 11.4238 21.7695 10.9377C22.2556 10.4516 22.4987 9.86127 22.4987 9.16683C22.4987 8.47238 22.2556 7.88211 21.7695 7.396C21.2834 6.90988 20.6931 6.66683 19.9987 6.66683C19.3043 6.66683 18.714 6.90988 18.2279 7.396C17.7418 7.88211 17.4987 8.47238 17.4987 9.16683C17.4987 9.86127 17.7418 10.4516 18.2279 10.9377C18.714 11.4238 19.3043 11.6668 19.9987 11.6668ZM19.9987 36.6668L9.9987 26.6668C9.44314 26.1113 9.02648 25.4863 8.7487 24.7918C8.47092 24.0974 8.33203 23.3335 8.33203 22.5002C8.33203 20.8613 8.89453 19.4793 10.0195 18.3543C11.1445 17.2293 12.5265 16.6668 14.1654 16.6668C14.9709 16.6668 15.714 16.8196 16.3945 17.1252C17.0751 17.4307 17.6931 17.8613 18.2487 18.4168L19.9987 20.1668L21.7487 18.4168C22.3043 17.8613 22.9223 17.4307 23.6029 17.1252C24.2834 16.8196 25.0265 16.6668 25.832 16.6668C27.4709 16.6668 28.8529 17.2293 29.9779 18.3543C31.1029 19.4793 31.6654 20.8613 31.6654 22.5002C31.6654 23.3335 31.5265 24.0974 31.2487 24.7918C30.9709 25.4863 30.5543 26.1113 29.9987 26.6668L19.9987 36.6668ZM19.9987 31.9168L27.582 24.3335C27.832 24.0835 28.0195 23.7988 28.1445 23.4793C28.2695 23.1599 28.332 22.8335 28.332 22.5002C28.332 21.8335 28.0959 21.2502 27.6237 20.7502C27.1515 20.2502 26.5543 20.0002 25.832 20.0002C25.4987 20.0002 25.2001 20.0488 24.9362 20.146C24.6723 20.2432 24.4154 20.4168 24.1654 20.6668L19.9987 24.8335L15.832 20.6668C15.6654 20.5002 15.4501 20.3474 15.1862 20.2085C14.9223 20.0696 14.582 20.0002 14.1654 20.0002C13.4431 20.0002 12.8459 20.2502 12.3737 20.7502C11.9015 21.2502 11.6654 21.8335 11.6654 22.5002C11.6654 22.8335 11.7348 23.146 11.8737 23.4377C12.0126 23.7293 12.1931 24.0002 12.4154 24.2502L19.9987 31.9168Z" fill="#777777"/>
</g>
</svg>
