<svg width="40" height="40" viewBox="0 0 40 40" fill="none" xmlns="http://www.w3.org/2000/svg">
<path d="M14.2623 22.5007H7.80399C6.94831 22.5055 6.12933 22.8488 5.52598 23.4556C4.92264 24.0624 4.58397 24.8833 4.58399 25.739V32.1973C4.58355 32.6203 4.66654 33.0392 4.8282 33.4301C4.98987 33.8209 5.22703 34.1761 5.52612 34.4752C5.82522 34.7743 6.18036 35.0114 6.57123 35.1731C6.96209 35.3348 7.38101 35.4178 7.80399 35.4173H14.2623C15.1181 35.4182 15.9394 35.0798 16.5461 34.4762C17.1528 33.8726 17.4955 33.0531 17.499 32.1973V25.739C17.4994 25.3138 17.416 24.8927 17.2535 24.4998C17.091 24.107 16.8526 23.75 16.552 23.4493C16.2513 23.1487 15.8943 22.9103 15.5015 22.7478C15.1086 22.5853 14.6875 22.5019 14.2623 22.5023M14.2623 4.58399H7.80399C7.38101 4.58355 6.96209 4.66654 6.57123 4.8282C6.18036 4.98987 5.82522 5.22703 5.52612 5.52612C5.22703 5.82522 4.98987 6.18036 4.8282 6.57123C4.66654 6.96209 4.58355 7.38101 4.58399 7.80399V14.2623C4.5831 15.1181 4.92153 15.9394 5.52511 16.5461C6.12869 17.1528 6.94819 17.4955 7.80399 17.499H14.2623C14.6875 17.4994 15.1086 17.416 15.5015 17.2535C15.8943 17.091 16.2513 16.8526 16.552 16.552C16.8526 16.2513 17.091 15.8943 17.2535 15.5015C17.416 15.1086 17.4994 14.6875 17.499 14.2623V7.80399C17.4955 6.94819 17.1528 6.12869 16.5461 5.52511C15.9394 4.92153 15.1181 4.5831 14.2623 4.58399ZM32.1973 4.58399H25.739C24.8832 4.5831 24.0619 4.92153 23.4552 5.52511C22.8485 6.12869 22.5058 6.94819 22.5023 7.80399V14.2623C22.5028 15.1206 22.8439 15.9436 23.4508 16.5505C24.0577 17.1574 24.8807 17.4985 25.739 17.499H32.1973C33.0531 17.4955 33.8726 17.1528 34.4762 16.5461C35.0798 15.9394 35.4182 15.1181 35.4173 14.2623V7.80399C35.4178 7.38101 35.3348 6.96209 35.1731 6.57123C35.0114 6.18036 34.7743 5.82522 34.4752 5.52612C34.1761 5.22703 33.8209 4.98987 33.4301 4.8282C33.0392 4.66654 32.6203 4.58355 32.1973 4.58399ZM28.959 22.5007C27.2461 22.5007 25.6034 23.1811 24.3923 24.3923C23.1811 25.6034 22.5007 27.2461 22.5007 28.959C22.5007 30.6718 23.1811 32.3145 24.3923 33.5257C25.6034 34.7369 27.2461 35.4173 28.959 35.4173C30.6718 35.4173 32.3145 34.7369 33.5257 33.5257C34.7369 32.3145 35.4173 30.6718 35.4173 28.959C35.4173 27.2461 34.7369 25.6034 33.5257 24.3923C32.3145 23.1811 30.6718 22.5007 28.959 22.5007Z" stroke="#545454" stroke-width="2.5" stroke-linecap="round" stroke-linejoin="round"/>
</svg>
