<svg width="30" height="33" viewBox="0 0 30 33" fill="none" xmlns="http://www.w3.org/2000/svg">
<path d="M13.2825 0.683356C13.7467 0.244516 14.3612 0 15 0C15.6388 0 16.2533 0.244516 16.7175 0.683356L28.8275 12.1309C29.5775 12.8384 30 13.8259 30 14.8559V28.7809C30 29.7754 29.6049 30.7292 28.9017 31.4325C28.1984 32.1358 27.2446 32.5309 26.25 32.5309H21.25C20.7573 32.5309 20.2695 32.4338 19.8144 32.2452C19.3592 32.0566 18.9457 31.7801 18.5975 31.4316C18.2492 31.0831 17.973 30.6694 17.7847 30.2142C17.5964 29.7589 17.4997 29.271 17.5 28.7784V22.5284C17.5 22.1968 17.3683 21.8789 17.1339 21.6445C16.8995 21.4101 16.5815 21.2784 16.25 21.2784H13.75C13.4185 21.2784 13.1005 21.4101 12.8661 21.6445C12.6317 21.8789 12.5 22.1968 12.5 22.5284V28.7784C12.5 29.7729 12.1049 30.7267 11.4017 31.43C10.6984 32.1333 9.74456 32.5284 8.75 32.5284H3.75C2.75544 32.5284 1.80161 32.1333 1.09835 31.43C0.395088 30.7267 0 29.7729 0 28.7784V14.8534C0 13.8234 0.425 12.8359 1.175 12.1284L13.2825 0.683356ZM15 2.49836L2.89 13.9484C2.76706 14.0649 2.6691 14.2052 2.60205 14.3608C2.53501 14.5164 2.50029 14.684 2.5 14.8534V28.7784C2.5 29.1099 2.6317 29.4278 2.86612 29.6622C3.10054 29.8967 3.41848 30.0284 3.75 30.0284H8.75C9.08152 30.0284 9.39946 29.8967 9.63388 29.6622C9.8683 29.4278 10 29.1099 10 28.7784V22.5284C10 21.5338 10.3951 20.58 11.0983 19.8767C11.8016 19.1734 12.7554 18.7784 13.75 18.7784H16.25C17.2446 18.7784 18.1984 19.1734 18.9017 19.8767C19.6049 20.58 20 21.5338 20 22.5284V28.7784C20 29.1099 20.1317 29.4278 20.3661 29.6622C20.6005 29.8967 20.9185 30.0284 21.25 30.0284H26.25C26.5815 30.0284 26.8995 29.8967 27.1339 29.6622C27.3683 29.4278 27.5 29.1099 27.5 28.7784V14.8534C27.5 14.6835 27.4655 14.5155 27.3984 14.3595C27.3314 14.2034 27.2332 14.0627 27.11 13.9459L15 2.49836Z" fill="#757575"/>
</svg>
