<svg width="40" height="35" viewBox="0 0 40 35" fill="none" xmlns="http://www.w3.org/2000/svg">
<path d="M34.234 34.927H5.75803C5.48882 34.9271 5.22222 34.8809 4.97345 34.7908C4.72469 34.7008 4.49862 34.5687 4.30817 34.4023C4.11772 34.2358 3.9666 34.0381 3.86346 33.8205C3.76032 33.6029 3.70716 33.3697 3.70703 33.1341V1.86864C3.70703 0.878141 4.62703 0.0722656 5.75803 0.0722656H34.235C35.195 0.0722656 36.003 0.651516 36.228 1.43114H36.29L36.294 1.86864V33.1341C36.2911 33.6105 36.0728 34.0665 35.6868 34.4025C35.3008 34.7384 34.7785 34.927 34.234 34.927ZM5.75803 0.947266C5.17803 0.947266 4.70703 1.36114 4.70703 1.86864V33.1341C4.70703 33.6399 5.17803 34.052 5.75803 34.052H34.235C34.819 34.052 35.294 33.6399 35.294 33.1341L35.289 1.86864C35.289 1.36114 34.816 0.947266 34.234 0.947266H5.75803Z" fill="#545454"/>
<path d="M24.3724 10.6632L19.5564 6.44922L11.3704 13.612C11.2437 13.7225 11.1432 13.8538 11.0746 13.9984C11.006 14.143 10.9707 14.298 10.9707 14.4546C10.9707 14.6111 11.006 14.7662 11.0746 14.9107C11.1432 15.0553 11.2437 15.1867 11.3704 15.2972L13.9384 17.5495C14.0777 17.6717 14.2432 17.7687 14.4255 17.8348C14.6077 17.901 14.8031 17.9351 15.0004 17.9351C15.1977 17.9351 15.393 17.901 15.5753 17.8348C15.7575 17.7687 15.923 17.6717 16.0624 17.5495" stroke="#545454" stroke-width="1.5" stroke-linecap="round" stroke-linejoin="round"/>
<path d="M8 20.776L10.408 18.669M18.113 5.18612L19.557 6.44962M21.002 7.714L24.373 4.76437M26.299 6.44962L22.928 9.39925M22.928 3.5L27.744 7.714M24.5 15.806V19.7435M22.25 17.7747H26.75M11.852 15.7194L9.444 17.8264L11.37 19.5116L13.778 17.4046L11.852 15.7194ZM30.5 16.4622C30.5032 17.9904 29.9103 19.4737 28.8193 20.667C27.7283 21.8603 26.2045 22.692 24.5 23.0247C22.7954 22.692 21.2717 21.8603 20.1807 20.667C19.0897 19.4737 18.4968 17.9904 18.5 16.4622V14.4935C18.5 14.1454 18.658 13.8116 18.9393 13.5654C19.2206 13.3193 19.6022 13.181 20 13.181H29C29.3978 13.181 29.7793 13.3193 30.0606 13.5654C30.342 13.8116 30.5 14.1454 30.5 14.4935V16.4622Z" stroke="#545454" stroke-width="1.5" stroke-linecap="round" stroke-linejoin="round"/>
<path d="M18.3402 26.0913H10.355C10.2608 26.0913 10.1705 26.0602 10.104 26.0048C10.0374 25.9493 10 25.8742 10 25.7958C10 25.7174 10.0374 25.6422 10.104 25.5868C10.1705 25.5313 10.2608 25.5002 10.355 25.5002H18.3402C18.4343 25.5002 18.5246 25.5313 18.5912 25.5868C18.6578 25.6422 18.6952 25.7174 18.6952 25.7958C18.6952 25.8742 18.6578 25.9493 18.5912 26.0048C18.5246 26.0602 18.4343 26.0913 18.3402 26.0913ZM18.3402 27.6318H10.355C10.2608 27.6318 10.1705 27.6007 10.104 27.5453C10.0374 27.4898 10 27.4147 10 27.3363C10 27.2579 10.0374 27.1827 10.104 27.1273C10.1705 27.0718 10.2608 27.0407 10.355 27.0407H18.3402C18.4343 27.0407 18.5246 27.0718 18.5912 27.1273C18.6578 27.1827 18.6952 27.2579 18.6952 27.3363C18.6952 27.4147 18.6578 27.4898 18.5912 27.5453C18.5246 27.6007 18.4343 27.6318 18.3402 27.6318ZM18.3402 30.7105H10.355C10.2608 30.7105 10.1705 30.6793 10.104 30.6239C10.0374 30.5685 10 30.4933 10 30.4149C10 30.3365 10.0374 30.2613 10.104 30.2059C10.1705 30.1505 10.2608 30.1193 10.355 30.1193H18.3402C18.4343 30.1193 18.5246 30.1505 18.5912 30.2059C18.6578 30.2613 18.6952 30.3365 18.6952 30.4149C18.6952 30.4933 18.6578 30.5685 18.5912 30.6239C18.5246 30.6793 18.4343 30.7105 18.3402 30.7105ZM18.3402 29.1706H10.355C10.2608 29.1706 10.1705 29.1394 10.104 29.084C10.0374 29.0286 10 28.9534 10 28.875C10 28.7966 10.0374 28.7214 10.104 28.666C10.1705 28.6106 10.2608 28.5794 10.355 28.5794H18.3402C18.4343 28.5794 18.5246 28.6106 18.5912 28.666C18.6578 28.7214 18.6952 28.7966 18.6952 28.875C18.6952 28.9534 18.6578 29.0286 18.5912 29.084C18.5246 29.1394 18.4343 29.1706 18.3402 29.1706ZM18.3402 32.2498H10.355C10.2608 32.2498 10.1705 32.2187 10.104 32.1632C10.0374 32.1078 10 32.0326 10 31.9542C10 31.8758 10.0374 31.8007 10.104 31.7452C10.1705 31.6898 10.2608 31.6587 10.355 31.6587H18.3402C18.4343 31.6587 18.5246 31.6898 18.5912 31.7452C18.6578 31.8007 18.6952 31.8758 18.6952 31.9542C18.6952 32.0326 18.6578 32.1078 18.5912 32.1632C18.5246 32.2187 18.4343 32.2498 18.3402 32.2498ZM24.7451 33.25C21.8472 33.25 19.4903 31.2874 19.4903 28.8744C19.4903 26.462 21.8472 24.5 24.7451 24.5C27.6431 24.5 30 26.462 30 28.8744C30 31.2868 27.6431 33.25 24.7451 33.25ZM24.7451 25.0911C23.5405 25.0924 22.3855 25.4913 21.5335 26.2005C20.6816 26.9097 20.2021 27.8713 20.2002 28.8744C20.2002 30.9611 22.2391 32.6589 24.7451 32.6589C27.2512 32.6589 29.2901 30.9611 29.2901 28.8744C29.2901 26.7883 27.2512 25.0911 24.7451 25.0911Z" fill="#545454"/>
<path d="M25.0037 33.25C22.8182 33.25 20.8478 32.2305 20.2126 30.771L21.0072 30.6018C21.537 31.8189 23.1794 32.6687 25.0029 32.6687C25.8973 32.6717 26.7691 32.4719 27.4879 32.0994C28.2068 31.7269 28.7341 31.2015 28.9911 30.6018L29.7858 30.771C29.477 31.4898 28.8445 32.1195 27.9828 32.5663C27.121 33.013 26.0761 33.2528 25.0037 33.25ZM29.5848 30.0403H29.0459C28.9358 30.0403 28.8302 30.0097 28.7523 29.9552C28.6745 29.9007 28.6307 29.8268 28.6307 29.7497C28.6307 29.6726 28.6745 29.5987 28.7523 29.5442C28.8302 29.4897 28.9358 29.4591 29.0459 29.4591H29.1489C28.9396 27.9856 27.1593 26.8312 24.9996 26.8312C22.8398 26.8312 21.0595 27.9856 20.8503 29.4591H21.0006C21.1107 29.4591 21.2163 29.4897 21.2942 29.5442C21.372 29.5987 21.4158 29.6726 21.4158 29.7497C21.4158 29.8268 21.372 29.9007 21.2942 29.9552C21.2163 30.0097 21.1107 30.0403 21.0006 30.0403H20.4152C20.3051 30.0403 20.1995 30.0097 20.1216 29.9552C20.0437 29.9007 20 29.8268 20 29.7497C20 27.82 22.2428 26.25 24.9996 26.25C27.7564 26.25 30 27.82 30 29.7497C30 29.8268 29.9563 29.9007 29.8784 29.9552C29.8005 30.0097 29.6949 30.0403 29.5848 30.0403Z" fill="black"/>
<path d="M24.9594 27.1867C24.8689 27.1867 24.7821 27.1582 24.7181 27.1074C24.6541 27.0567 24.6181 26.9878 24.6181 26.916V26.5207C24.6181 26.4489 24.6541 26.3801 24.7181 26.3293C24.7821 26.2785 24.8689 26.25 24.9594 26.25C25.0499 26.25 25.1367 26.2785 25.2007 26.3293C25.2646 26.3801 25.3006 26.4489 25.3006 26.5207V26.916C25.3006 26.9878 25.2646 27.0567 25.2007 27.1074C25.1367 27.1582 25.0499 27.1867 24.9594 27.1867ZM27.2838 28C27.2164 27.9999 27.1505 27.9839 27.0944 27.9541C27.0384 27.9243 26.9948 27.8819 26.9691 27.8324C26.9434 27.783 26.9367 27.7285 26.95 27.6761C26.9633 27.6236 26.9958 27.5754 27.0436 27.5376L27.4224 27.2382C27.4869 27.189 27.5732 27.1619 27.6627 27.1627C27.7521 27.1635 27.8376 27.1921 27.9007 27.2425C27.9638 27.2928 27.9995 27.3608 28 27.4318C28.0005 27.5028 27.9659 27.5711 27.9035 27.6221L27.5247 27.9215C27.4607 27.9719 27.374 28.0001 27.2838 28ZM22.7148 28C22.6699 28.0001 22.6255 27.9931 22.5841 27.9796C22.5426 27.966 22.5049 27.9461 22.4732 27.9209L22.0958 27.6215C22.0336 27.5705 21.9992 27.5021 22 27.4311C22.0008 27.3601 22.0367 27.2922 22.0999 27.242C22.1632 27.1918 22.2488 27.1633 22.3383 27.1627C22.4277 27.1621 22.5139 27.1894 22.5783 27.2387L22.9557 27.5381C23.0033 27.576 23.0356 27.6242 23.0487 27.6766C23.0618 27.7291 23.0551 27.7834 23.0293 27.8328C23.0036 27.8822 22.9599 27.9244 22.904 27.9542C22.848 27.9839 22.7822 27.9999 22.7148 28Z" fill="black"/>
<path d="M25.0062 33.25C24.7429 33.2492 24.4906 33.0949 24.3045 32.821C24.1184 32.5471 24.0137 32.1759 24.0135 31.7887L24 31.7095L24.0155 31.7034L24.6228 26.7123C24.64 26.5822 24.6874 26.465 24.7569 26.3807C24.8264 26.2964 24.9136 26.2502 25.0037 26.25C25.0938 26.2498 25.1811 26.2957 25.2508 26.3797C25.3204 26.4638 25.368 26.5808 25.3855 26.7108C26 31.6249 26 31.7438 26 31.7879C25.9999 32.1755 25.8951 32.5472 25.7088 32.8213C25.5225 33.0954 25.2698 33.2496 25.0062 33.25ZM24.5316 31.7879C24.5316 32.1742 24.7446 32.4881 25.0062 32.4881C25.1323 32.4877 25.2531 32.4139 25.3422 32.2828C25.4314 32.1517 25.4816 31.9741 25.4819 31.7887C25.4694 31.6417 25.2238 29.6432 25.0057 27.8902L24.5316 31.7879Z" fill="black"/>
</svg>
