<svg width="40" height="40" viewBox="0 0 40 40" fill="none" xmlns="http://www.w3.org/2000/svg">
<path d="M0 1.66667C0 1.22464 0.175595 0.800716 0.488155 0.488155C0.800716 0.175595 1.22464 0 1.66667 0H31.6667C32.1087 0 32.5326 0.175595 32.8452 0.488155C33.1577 0.800716 33.3333 1.22464 33.3333 1.66667V28.3333C33.3333 28.7754 33.1577 29.1993 32.8452 29.5118C32.5326 29.8244 32.1087 30 31.6667 30H1.66667C1.22464 30 0.800716 29.8244 0.488155 29.5118C0.175595 29.1993 0 28.7754 0 28.3333V1.66667ZM3.33333 3.33333V26.6667H30V3.33333H3.33333ZM6.66667 6.66667H10V10H6.66667V6.66667ZM10 13.3333H6.66667V16.6667H10V13.3333ZM6.66667 20H10V23.3333H6.66667V20ZM26.6667 6.66667H13.3333V10H26.6667V6.66667ZM13.3333 20H26.6667V23.3333H13.3333V20ZM26.6667 13.3333H13.3333V16.6667H26.6667V13.3333Z" fill="#545454"/>
</svg>
