<svg width="40" height="40" viewBox="0 0 40 40" fill="none" xmlns="http://www.w3.org/2000/svg">
<path d="M26 18C26 19.5913 25.3679 21.1174 24.2427 22.2426C23.1174 23.3679 21.5913 24 20 24C18.4087 24 16.8826 23.3679 15.7574 22.2426C14.6322 21.1174 14 19.5913 14 18C14 16.4087 14.6322 14.8826 15.7574 13.7574C16.8826 12.6321 18.4087 12 20 12C21.5913 12 23.1174 12.6321 24.2427 13.7574C25.3679 14.8826 26 16.4087 26 18ZM24 18C24 16.9391 23.5786 15.9217 22.8284 15.1716C22.0783 14.4214 21.0609 14 20 14C18.9391 14 17.9217 14.4214 17.1716 15.1716C16.4214 15.9217 16 16.9391 16 18C16 19.0609 16.4214 20.0783 17.1716 20.8284C17.9217 21.5786 18.9391 22 20 22C21.0609 22 22.0783 21.5786 22.8284 20.8284C23.5786 20.0783 24 19.0609 24 18ZM29.9 27.91C32.5258 25.2828 34.0009 21.7204 34.0009 18.006C34.0009 14.2916 32.5258 10.7292 29.9 8.102C28.6 6.80183 27.0566 5.77047 25.3579 5.06681C23.6593 4.36316 21.8386 4.00099 20 4.00099C18.1614 4.00099 16.3408 4.36316 14.6421 5.06681C12.9435 5.77047 11.4001 6.80183 10.1 8.102C7.4742 10.7292 5.99915 14.2916 5.99915 18.006C5.99915 21.7204 7.4742 25.2828 10.1 27.91L13.142 30.908L17.228 34.878L17.494 35.114C19.044 36.37 21.314 36.29 22.774 34.878L27.644 30.138L29.9 27.91ZM11.51 9.512C12.6245 8.39628 13.948 7.51118 15.4047 6.90729C16.8615 6.30339 18.423 5.99256 20 5.99256C21.577 5.99256 23.1385 6.30339 24.5953 6.90729C26.0521 7.51118 27.3755 8.39628 28.49 9.512C30.6785 11.7034 31.9368 14.655 32.0023 17.7513C32.0679 20.8477 30.9358 23.8499 28.842 26.132L28.49 26.5L25.848 29.108L21.388 33.446L21.2 33.606C20.8536 33.8654 20.4324 34.0054 19.9997 34.005C19.5669 34.0046 19.146 33.8639 18.8 33.604L18.614 33.444L12.654 27.634L11.51 26.5L11.158 26.134C9.06423 23.8519 7.93212 20.8497 7.9977 17.7533C8.06327 14.657 9.32149 11.7034 11.51 9.512Z" fill="#777777"/>
</svg>
