<svg width="40" height="40" viewBox="0 0 40 40" fill="none" xmlns="http://www.w3.org/2000/svg">
<path d="M9.36002 33.3333C8.59224 33.3333 7.95169 33.0767 7.43835 32.5633C6.92502 32.05 6.6678 31.4089 6.66669 30.64V9.36001C6.66669 8.59223 6.92391 7.95167 7.43835 7.43834C7.9528 6.925 8.59335 6.66778 9.36002 6.66667H19.1984C19.4361 6.66667 19.6345 6.74612 19.7934 6.90501C19.9522 7.06389 20.0317 7.26223 20.0317 7.50001C20.0317 7.73778 19.9522 7.93612 19.7934 8.095C19.6345 8.25389 19.4361 8.33334 19.1984 8.33334H9.36002C9.10335 8.33334 8.8678 8.44 8.65335 8.65334C8.43891 8.86667 8.33224 9.10223 8.33335 9.36001V30.6417C8.33335 30.8972 8.44002 31.1322 8.65335 31.3467C8.86669 31.5611 9.10169 31.6678 9.35835 31.6667H19.1984C19.4361 31.6667 19.6345 31.7461 19.7934 31.905C19.9522 32.0639 20.0317 32.2622 20.0317 32.5C20.0317 32.7378 19.9522 32.9361 19.7934 33.095C19.6345 33.2539 19.4361 33.3333 19.1984 33.3333H9.36002ZM30.1 20.8333H16.1534C15.9167 20.8333 15.7189 20.7539 15.56 20.595C15.4011 20.4361 15.3211 20.2378 15.32 20C15.3189 19.7622 15.3984 19.5639 15.5584 19.405C15.7184 19.2461 15.9167 19.1667 16.1534 19.1667H30.1L26.815 15.8817C26.6584 15.7261 26.575 15.5383 26.565 15.3183C26.5539 15.0972 26.6372 14.895 26.815 14.7117C26.9917 14.5283 27.1878 14.435 27.4034 14.4317C27.62 14.4283 27.82 14.5183 28.0034 14.7017L32.36 19.0567C32.6289 19.3267 32.7634 19.6411 32.7634 20C32.7634 20.3589 32.6284 20.6733 32.3584 20.9433L28.0034 25.2983C27.8411 25.4606 27.6484 25.5456 27.425 25.5533C27.2017 25.5611 26.9984 25.4728 26.815 25.2883C26.6372 25.105 26.55 24.9067 26.5534 24.6933C26.5567 24.48 26.6467 24.2856 26.8234 24.11L30.1 20.8333Z" fill="#777777"/>
</svg>
