<svg width="27" height="33" viewBox="0 0 27 33" fill="none" xmlns="http://www.w3.org/2000/svg">
<path d="M5.94 0.522214C5.94 0.522214 14.9445 -0.00630157 14.1075 7.25112C14.1075 7.25112 15.3968 2.42358 21.06 4.63432C21.06 4.63432 19.8653 9.40385 15.12 8.2437C15.12 8.2437 16.1055 4.72456 19.5818 4.59565C19.5818 4.59565 16.8885 3.93178 14.04 7.74096C14.04 7.74096 12.7035 1.65014 7.722 1.31499C7.722 1.31499 12.798 2.56538 12.96 8.2437C12.96 8.25014 5.778 8.69487 5.94 0.522214ZM27 20.8636C27 23.9896 26.3453 27.006 24.84 29.3908C21.9915 31.3824 17.7525 32.4845 13.5 32.4845C9.25425 32.4845 5.0085 31.3824 2.16 29.3908C0.65475 27.006 0 23.9896 0 20.8636C0 17.7441 1.19475 14.7599 2.7 12.3751C5.5485 10.3835 9.25425 9.24272 13.5 9.24272C17.7525 9.24272 21.4515 10.3771 24.3 12.3751C25.8053 14.7599 27 17.7441 27 20.8636ZM8.1 27.5861C8.1 26.5871 7.25625 25.7814 6.21 25.7814C5.16375 25.7814 4.32 26.5871 4.32 27.5861C4.32 28.5851 5.16375 29.3908 6.21 29.3908C7.25625 29.3908 8.1 28.5851 8.1 27.5861ZM8.1 23.3193C8.1 22.3203 7.25625 21.5146 6.21 21.5146C5.16375 21.5146 4.32 22.3203 4.32 23.3193C4.32 24.3183 5.16375 25.124 6.21 25.124C7.25625 25.124 8.1 24.3183 8.1 23.3193ZM8.1 19.0525C8.1 18.0535 7.25625 17.2478 6.21 17.2478C5.16375 17.2478 4.32 18.0535 4.32 19.0525C4.32 20.0515 5.16375 20.8572 6.21 20.8572C7.25625 20.8572 8.1 20.0515 8.1 19.0525ZM12.96 27.5861C12.96 26.5871 12.1163 25.7814 11.07 25.7814C10.0238 25.7814 9.18 26.5871 9.18 27.5861C9.18 28.5851 10.0238 29.3908 11.07 29.3908C12.1163 29.3908 12.96 28.5851 12.96 27.5861ZM12.96 23.3193C12.96 22.3203 12.1163 21.5146 11.07 21.5146C10.0238 21.5146 9.18 22.3203 9.18 23.3193C9.18 24.3183 10.0238 25.124 11.07 25.124C12.1163 25.124 12.96 24.3183 12.96 23.3193ZM12.96 19.0525C12.96 18.0535 12.1163 17.2478 11.07 17.2478C10.0238 17.2478 9.18 18.0535 9.18 19.0525C9.18 20.0515 10.0238 20.8572 11.07 20.8572C12.1163 20.8572 12.96 20.0515 12.96 19.0525ZM17.82 27.5861C17.82 26.5871 16.9763 25.7814 15.93 25.7814C14.8838 25.7814 14.04 26.5871 14.04 27.5861C14.04 28.5851 14.8838 29.3908 15.93 29.3908C16.9763 29.3908 17.82 28.5851 17.82 27.5861ZM17.82 23.3193C17.82 22.3203 16.9763 21.5146 15.93 21.5146C14.8838 21.5146 14.04 22.3203 14.04 23.3193C14.04 24.3183 14.8838 25.124 15.93 25.124C16.9763 25.124 17.82 24.3183 17.82 23.3193ZM17.82 19.0525C17.82 18.0535 16.9763 17.2478 15.93 17.2478C14.8838 17.2478 14.04 18.0535 14.04 19.0525C14.04 20.0515 14.8838 20.8572 15.93 20.8572C16.9763 20.8572 17.82 20.0515 17.82 19.0525ZM22.68 27.5861C22.68 26.5871 21.8363 25.7814 20.79 25.7814C19.7438 25.7814 18.9 26.5871 18.9 27.5861C18.9 28.5851 19.7438 29.3908 20.79 29.3908C21.8363 29.3908 22.68 28.5851 22.68 27.5861ZM22.68 23.3193C22.68 22.3203 21.8363 21.5146 20.79 21.5146C19.7438 21.5146 18.9 22.3203 18.9 23.3193C18.9 24.3183 19.7438 25.124 20.79 25.124C21.8363 25.124 22.68 24.3183 22.68 23.3193ZM22.68 19.0525C22.68 18.0535 21.8363 17.2478 20.79 17.2478C19.7438 17.2478 18.9 18.0535 18.9 19.0525C18.9 20.0515 19.7438 20.8572 20.79 20.8572C21.8363 20.8572 22.68 20.0515 22.68 19.0525ZM24.3 16.5001C23.976 15.0628 23.8005 14.1218 23.22 12.8908C20.601 11.6082 17.1113 10.8283 13.5 10.8283C9.88875 10.8283 6.399 11.6082 3.78 12.8908C3.186 14.1476 3.024 15.0757 2.7 16.5001C5.5485 15.991 9.36225 15.5462 13.5 15.5462C17.6378 15.5462 21.4515 15.991 24.3 16.5001Z" fill="#545454"/>
</svg>
