<svg width="40" height="40" viewBox="0 0 40 40" fill="none" xmlns="http://www.w3.org/2000/svg">
<path d="M13.125 5C11.3016 5 9.55295 5.72433 8.26364 7.01364C6.97433 8.30295 6.25 10.0516 6.25 11.875C6.25 13.6984 6.97433 15.447 8.26364 16.7364C9.55295 18.0257 11.3016 18.75 13.125 18.75C14.9484 18.75 16.697 18.0257 17.9864 16.7364C19.2757 15.447 20 13.6984 20 11.875C20 10.0516 19.2757 8.30295 17.9864 7.01364C16.697 5.72433 14.9484 5 13.125 5ZM7.5 11.875C7.5 11.1363 7.64549 10.4049 7.92818 9.72241C8.21086 9.03995 8.62519 8.41985 9.14752 7.89752C9.66985 7.37519 10.2899 6.96086 10.9724 6.67818C11.6549 6.39549 12.3863 6.25 13.125 6.25C13.8637 6.25 14.5951 6.39549 15.2776 6.67818C15.9601 6.96086 16.5801 7.37519 17.1025 7.89752C17.6248 8.41985 18.0391 9.03995 18.3218 9.72241C18.6045 10.4049 18.75 11.1363 18.75 11.875C18.75 13.3668 18.1574 14.7976 17.1025 15.8525C16.0476 16.9074 14.6168 17.5 13.125 17.5C11.6332 17.5 10.2024 16.9074 9.14752 15.8525C8.09263 14.7976 7.5 13.3668 7.5 11.875ZM28.75 8.75C27.4239 8.75 26.1521 9.27678 25.2145 10.2145C24.2768 11.1521 23.75 12.4239 23.75 13.75C23.75 15.0761 24.2768 16.3479 25.2145 17.2855C26.1521 18.2232 27.4239 18.75 28.75 18.75C30.0761 18.75 31.3479 18.2232 32.2855 17.2855C33.2232 16.3479 33.75 15.0761 33.75 13.75C33.75 12.4239 33.2232 11.1521 32.2855 10.2145C31.3479 9.27678 30.0761 8.75 28.75 8.75ZM25 13.75C25 12.7554 25.3951 11.8016 26.0983 11.0983C26.8016 10.3951 27.7554 10 28.75 10C29.7446 10 30.6984 10.3951 31.4017 11.0983C32.1049 11.8016 32.5 12.7554 32.5 13.75C32.5 14.7446 32.1049 15.6984 31.4017 16.4017C30.6984 17.1049 29.7446 17.5 28.75 17.5C27.7554 17.5 26.8016 17.1049 26.0983 16.4017C25.3951 15.6984 25 14.7446 25 13.75ZM20 21.25C20.4837 21.25 20.9463 21.3413 21.37 21.5088C21.0067 21.8254 20.6646 22.1637 20.3438 22.5237C20.2298 22.5079 20.115 22.5 20 22.5H6.25C5.58696 22.5 4.95107 22.7634 4.48223 23.2322C4.01339 23.7011 3.75 24.337 3.75 25C3.75 26.105 4.16625 27.65 5.5075 28.9212C6.845 30.1887 9.175 31.25 13.125 31.25C14.8975 31.25 16.3438 31.0362 17.5212 30.6862C17.5463 31.1121 17.595 31.5312 17.6675 31.9438C16.4012 32.2963 14.8988 32.5 13.125 32.5C8.95 32.5 6.28 31.375 4.64875 29.8288C3.02125 28.2875 2.5 26.395 2.5 25C2.5 24.0054 2.89509 23.0516 3.59835 22.3483C4.30161 21.6451 5.25544 21.25 6.25 21.25H20ZM28.75 39.375C26.2636 39.375 23.879 38.3873 22.1209 36.6291C20.3627 34.871 19.375 32.4864 19.375 30C19.375 27.5136 20.3627 25.129 22.1209 23.3709C23.879 21.6127 26.2636 20.625 28.75 20.625C31.2364 20.625 33.621 21.6127 35.3791 23.3709C37.1373 25.129 38.125 27.5136 38.125 30C38.125 32.4864 37.1373 34.871 35.3791 36.6291C33.621 38.3873 31.2364 39.375 28.75 39.375ZM30 24.0625C30 23.8139 29.9012 23.5754 29.7254 23.3996C29.5496 23.2238 29.3111 23.125 29.0625 23.125C28.8139 23.125 28.5754 23.2238 28.3996 23.3996C28.2238 23.5754 28.125 23.8139 28.125 24.0625V28.75H23.4375C23.1889 28.75 22.9504 28.8488 22.7746 29.0246C22.5988 29.2004 22.5 29.4389 22.5 29.6875C22.5 29.9361 22.5988 30.1746 22.7746 30.3504C22.9504 30.5262 23.1889 30.625 23.4375 30.625H28.125V35.3125C28.125 35.5611 28.2238 35.7996 28.3996 35.9754C28.5754 36.1512 28.8139 36.25 29.0625 36.25C29.3111 36.25 29.5496 36.1512 29.7254 35.9754C29.9012 35.7996 30 35.5611 30 35.3125V30.625H34.6875C34.9361 30.625 35.1746 30.5262 35.3504 30.3504C35.5262 30.1746 35.625 29.9361 35.625 29.6875C35.625 29.4389 35.5262 29.2004 35.3504 29.0246C35.1746 28.8488 34.9361 28.75 34.6875 28.75H30V24.0625Z" fill="#545454"/>
</svg>
