<svg width="36" height="28" viewBox="0 0 36 28" fill="none" xmlns="http://www.w3.org/2000/svg">
<path d="M5.5 7.125C5.5 6.38631 5.64549 5.65486 5.92818 4.97241C6.21086 4.28995 6.62519 3.66985 7.14752 3.14752C7.66985 2.62519 8.28995 2.21086 8.97241 1.92818C9.65486 1.64549 10.3863 1.5 11.125 1.5C11.8637 1.5 12.5951 1.64549 13.2776 1.92818C13.9601 2.21086 14.5801 2.62519 15.1025 3.14752C15.6248 3.66985 16.0391 4.28995 16.3218 4.97241C16.6045 5.65486 16.75 6.38631 16.75 7.125C16.75 8.61684 16.1574 10.0476 15.1025 11.1025C14.0476 12.1574 12.6168 12.75 11.125 12.75C9.63316 12.75 8.20242 12.1574 7.14752 11.1025C6.09263 10.0476 5.5 8.61684 5.5 7.125ZM11.125 0.25C9.30164 0.25 7.55295 0.974328 6.26364 2.26364C4.97433 3.55295 4.25 5.30164 4.25 7.125C4.25 8.94836 4.97433 10.697 6.26364 11.9864C7.55295 13.2757 9.30164 14 11.125 14C12.9484 14 14.697 13.2757 15.9864 11.9864C17.2757 10.697 18 8.94836 18 7.125C18 5.30164 17.2757 3.55295 15.9864 2.26364C14.697 0.974328 12.9484 0.25 11.125 0.25ZM23 9C23 8.00544 23.3951 7.05161 24.0983 6.34835C24.8016 5.64509 25.7554 5.25 26.75 5.25C27.7446 5.25 28.6984 5.64509 29.4017 6.34835C30.1049 7.05161 30.5 8.00544 30.5 9C30.5 9.99456 30.1049 10.9484 29.4017 11.6517C28.6984 12.3549 27.7446 12.75 26.75 12.75C25.7554 12.75 24.8016 12.3549 24.0983 11.6517C23.3951 10.9484 23 9.99456 23 9ZM26.75 4C25.4239 4 24.1521 4.52678 23.2145 5.46447C22.2768 6.40215 21.75 7.67392 21.75 9C21.75 10.3261 22.2768 11.5979 23.2145 12.5355C24.1521 13.4732 25.4239 14 26.75 14C28.0761 14 29.3479 13.4732 30.2855 12.5355C31.2232 11.5979 31.75 10.3261 31.75 9C31.75 7.67392 31.2232 6.40215 30.2855 5.46447C29.3479 4.52678 28.0761 4 26.75 4ZM4.25 16.5C3.25544 16.5 2.30161 16.8951 1.59835 17.5983C0.895088 18.3016 0.5 19.2554 0.5 20.25C0.5 21.645 1.02125 23.5375 2.64875 25.0788C4.28 26.6238 6.95 27.75 11.1237 27.75C15.2975 27.75 17.97 26.625 19.6012 25.0788C21.2288 23.5375 21.75 21.645 21.75 20.25C21.75 19.2554 21.3549 18.3016 20.6517 17.5983C19.9484 16.8951 18.9946 16.5 18 16.5H4.25ZM1.75 20.25C1.75 19.587 2.01339 18.9511 2.48223 18.4822C2.95107 18.0134 3.58696 17.75 4.25 17.75H18C18.663 17.75 19.2989 18.0134 19.7678 18.4822C20.2366 18.9511 20.5 19.587 20.5 20.25C20.5 21.355 20.0837 22.9 18.7425 24.1712C17.405 25.4387 15.075 26.5 11.125 26.5C7.175 26.5 4.845 25.4375 3.5075 24.1712C2.16625 22.9 1.75 21.355 1.75 20.25ZM22.9537 23.485C22.7954 23.8617 22.6029 24.2367 22.3762 24.61C23.5337 25.0063 24.9725 25.25 26.75 25.25C30.3025 25.25 32.5012 24.2787 33.8175 23.05C35.12 21.835 35.5 20.4175 35.5 19.625C35.5 18.7962 35.1708 18.0013 34.5847 17.4153C33.9987 16.8292 33.2038 16.5 32.375 16.5H22.1925C22.5275 16.875 22.8137 17.295 23.04 17.75H32.375C32.8723 17.75 33.3492 17.9475 33.7008 18.2992C34.0525 18.6508 34.25 19.1277 34.25 19.625C34.25 20.0837 34.005 21.1663 32.9638 22.1375C31.9375 23.0963 30.0725 24 26.75 24C25.1812 24 23.9375 23.7987 22.9537 23.485Z" fill="#545454"/>
</svg>
