<svg width="30" height="30" viewBox="0 0 30 30" fill="none" xmlns="http://www.w3.org/2000/svg">
<path d="M5.625 9.84375C5.625 9.28974 5.73412 8.74115 5.94613 8.2293C6.15815 7.71746 6.4689 7.25239 6.86064 6.86064C7.25239 6.4689 7.71746 6.15815 8.2293 5.94613C8.74115 5.73412 9.28974 5.625 9.84375 5.625C10.3978 5.625 10.9464 5.73412 11.4582 5.94613C11.97 6.15815 12.4351 6.4689 12.8269 6.86064C13.2186 7.25239 13.5294 7.71746 13.7414 8.2293C13.9534 8.74115 14.0625 9.28974 14.0625 9.84375C14.0625 10.9626 13.618 12.0357 12.8269 12.8269C12.0357 13.618 10.9626 14.0625 9.84375 14.0625C8.72487 14.0625 7.65181 13.618 6.86064 12.8269C6.06947 12.0357 5.625 10.9626 5.625 9.84375ZM9.84375 4.6875C8.47623 4.6875 7.16472 5.23075 6.19773 6.19773C5.23075 7.16472 4.6875 8.47623 4.6875 9.84375C4.6875 11.2113 5.23075 12.5228 6.19773 13.4898C7.16472 14.4568 8.47623 15 9.84375 15C11.2113 15 12.5228 14.4568 13.4898 13.4898C14.4568 12.5228 15 11.2113 15 9.84375C15 8.47623 14.4568 7.16472 13.4898 6.19773C12.5228 5.23075 11.2113 4.6875 9.84375 4.6875ZM18.75 11.25C18.75 10.5041 19.0463 9.78871 19.5738 9.26126C20.1012 8.73382 20.8166 8.4375 21.5625 8.4375C22.3084 8.4375 23.0238 8.73382 23.5512 9.26126C24.0787 9.78871 24.375 10.5041 24.375 11.25C24.375 11.9959 24.0787 12.7113 23.5512 13.2387C23.0238 13.7662 22.3084 14.0625 21.5625 14.0625C20.8166 14.0625 20.1012 13.7662 19.5738 13.2387C19.0463 12.7113 18.75 11.9959 18.75 11.25ZM21.5625 7.5C20.5679 7.5 19.6141 7.89509 18.9109 8.59835C18.2076 9.30161 17.8125 10.2554 17.8125 11.25C17.8125 12.2446 18.2076 13.1984 18.9109 13.9017C19.6141 14.6049 20.5679 15 21.5625 15C22.5571 15 23.5109 14.6049 24.2141 13.9017C24.9174 13.1984 25.3125 12.2446 25.3125 11.25C25.3125 10.2554 24.9174 9.30161 24.2141 8.59835C23.5109 7.89509 22.5571 7.5 21.5625 7.5ZM4.6875 16.875C3.94158 16.875 3.22621 17.1713 2.69876 17.6988C2.17132 18.2262 1.875 18.9416 1.875 19.6875C1.875 20.7337 2.26594 22.1531 3.48656 23.3091C4.71 24.4678 6.7125 25.3125 9.84281 25.3125C12.9731 25.3125 14.9775 24.4688 16.2009 23.3091C17.4216 22.1531 17.8125 20.7337 17.8125 19.6875C17.8125 18.9416 17.5162 18.2262 16.9887 17.6988C16.4613 17.1713 15.7459 16.875 15 16.875H4.6875ZM2.8125 19.6875C2.8125 19.1902 3.01004 18.7133 3.36167 18.3617C3.71331 18.01 4.19022 17.8125 4.6875 17.8125H15C15.4973 17.8125 15.9742 18.01 16.3258 18.3617C16.6775 18.7133 16.875 19.1902 16.875 19.6875C16.875 20.5162 16.5628 21.675 15.5569 22.6284C14.5538 23.5791 12.8062 24.375 9.84375 24.375C6.88125 24.375 5.13375 23.5781 4.13063 22.6284C3.12469 21.675 2.8125 20.5162 2.8125 19.6875ZM18.7153 22.1137C18.5966 22.3962 18.4522 22.6775 18.2822 22.9575C19.1503 23.2547 20.2294 23.4375 21.5625 23.4375C24.2269 23.4375 25.8759 22.7091 26.8631 21.7875C27.84 20.8762 28.125 19.8131 28.125 19.2188C28.125 18.5971 27.8781 18.001 27.4385 17.5615C26.999 17.1219 26.4029 16.875 25.7812 16.875H18.1444C18.3956 17.1562 18.6103 17.4712 18.78 17.8125H25.7812C26.1542 17.8125 26.5119 17.9607 26.7756 18.2244C27.0393 18.4881 27.1875 18.8458 27.1875 19.2188C27.1875 19.5628 27.0037 20.3747 26.2228 21.1031C25.4531 21.8222 24.0544 22.5 21.5625 22.5C20.3859 22.5 19.4531 22.3491 18.7153 22.1137Z" fill="#545454"/>
</svg>
