<svg width="9" height="10" viewBox="0 0 9 10" fill="none" xmlns="http://www.w3.org/2000/svg">
<path d="M0.666567 8.50931L0.666567 1.49264C0.666166 1.21563 0.744222 0.944168 0.8917 0.709678C1.03918 0.475189 1.25005 0.287258 1.4999 0.16764C1.79635 0.0276126 2.12618 -0.02632 2.45179 0.0119874C2.7774 0.0502948 3.08571 0.179302 3.34157 0.384307L7.59157 3.89264C7.75042 4.03032 7.87783 4.20054 7.96515 4.39177C8.05247 4.58299 8.09766 4.79075 8.09766 5.00097C8.09766 5.21119 8.05247 5.41895 7.96515 5.61018C7.87783 5.8014 7.75042 5.97163 7.59157 6.10931L3.34157 9.61764C3.08571 9.82265 2.7774 9.95165 2.45179 9.98996C2.12618 10.0283 1.79635 9.97433 1.4999 9.83431C1.25005 9.71469 1.03918 9.52676 0.8917 9.29227C0.744222 9.05778 0.666166 8.78632 0.666567 8.50931Z" fill="black"/>
</svg>
