<svg width="40" height="40" viewBox="0 0 40 40" fill="none" xmlns="http://www.w3.org/2000/svg">
<path d="M20 25C22.7614 25 25 22.7614 25 20C25 17.2386 22.7614 15 20 15C17.2386 15 15 17.2386 15 20C15 22.7614 17.2386 25 20 25Z" stroke="#545454" stroke-width="2.5"/>
<path d="M22.9414 3.58732C22.3298 3.33398 21.5531 3.33398 19.9998 3.33398C18.4464 3.33398 17.6698 3.33398 17.0581 3.58732C16.6534 3.75484 16.2857 4.00048 15.976 4.31019C15.6663 4.6199 15.4206 4.98762 15.2531 5.39232C15.0998 5.76398 15.0381 6.19898 15.0148 6.83065C15.0039 7.2872 14.8774 7.73354 14.6472 8.12791C14.4169 8.52228 14.0904 8.8518 13.6981 9.08565C13.2995 9.3086 12.8508 9.42677 12.394 9.4291C11.9372 9.43144 11.4874 9.31785 11.0864 9.09898C10.5264 8.80232 10.1214 8.63898 9.71977 8.58565C8.84364 8.47043 7.95761 8.70783 7.25644 9.24565C6.73311 9.65065 6.34311 10.3223 5.56644 11.6673C4.78977 13.0123 4.39977 13.684 4.31477 14.3423C4.2575 14.7764 4.28631 15.2175 4.39955 15.6405C4.5128 16.0634 4.70826 16.4599 4.97477 16.8073C5.22144 17.1273 5.56644 17.3957 6.10144 17.7323C6.88977 18.2273 7.39644 19.0707 7.39644 20.0007C7.39644 20.9307 6.88977 21.774 6.10144 22.2673C5.56644 22.6057 5.21977 22.874 4.97477 23.194C4.70826 23.5414 4.5128 23.9379 4.39955 24.3608C4.28631 24.7838 4.2575 25.2249 4.31477 25.659C4.40144 26.3157 4.78977 26.989 5.56477 28.334C6.34311 29.679 6.73144 30.3506 7.25644 30.7556C7.60383 31.0222 8.00033 31.2176 8.42328 31.3309C8.84623 31.4441 9.28735 31.4729 9.72144 31.4157C10.1214 31.3623 10.5264 31.199 11.0864 30.9023C11.4874 30.6834 11.9372 30.5699 12.394 30.5722C12.8508 30.5745 13.2995 30.6927 13.6981 30.9157C14.5031 31.3823 14.9814 32.2407 15.0148 33.1707C15.0381 33.804 15.0981 34.2373 15.2531 34.609C15.4206 35.0137 15.6663 35.3814 15.976 35.6911C16.2857 36.0008 16.6534 36.2465 17.0581 36.414C17.6698 36.6673 18.4464 36.6673 19.9998 36.6673C21.5531 36.6673 22.3298 36.6673 22.9414 36.414C23.3461 36.2465 23.7139 36.0008 24.0236 35.6911C24.3333 35.3814 24.5789 35.0137 24.7464 34.609C24.8998 34.2373 24.9614 33.804 24.9848 33.1707C25.0181 32.2407 25.4964 31.3807 26.3014 30.9157C26.7001 30.6927 27.1488 30.5745 27.6056 30.5722C28.0623 30.5699 28.5122 30.6834 28.9131 30.9023C29.4731 31.199 29.8781 31.3623 30.2781 31.4157C30.7122 31.4729 31.1533 31.4441 31.5763 31.3309C31.9992 31.2176 32.3957 31.0222 32.7431 30.7556C33.2681 30.3523 33.6564 29.679 34.4331 28.334C35.2098 26.989 35.5998 26.3173 35.6848 25.659C35.742 25.2249 35.7132 24.7838 35.6 24.3608C35.4868 23.9379 35.2913 23.5414 35.0248 23.194C34.7781 22.874 34.4331 22.6057 33.8981 22.269C33.508 22.0313 33.1845 21.6985 32.9581 21.3018C32.7316 20.9051 32.6094 20.4574 32.6031 20.0007C32.6031 19.0707 33.1098 18.2273 33.8981 17.734C34.4331 17.3957 34.7798 17.1273 35.0248 16.8073C35.2913 16.4599 35.4868 16.0634 35.6 15.6405C35.7132 15.2175 35.742 14.7764 35.6848 14.3423C35.5981 13.6857 35.2098 13.0123 34.4348 11.6673C33.6564 10.3223 33.2681 9.65065 32.7431 9.24565C32.3957 8.97914 31.9992 8.78367 31.5763 8.67043C31.1533 8.55718 30.7122 8.52838 30.2781 8.58565C29.8781 8.63898 29.4731 8.80232 28.9114 9.09898C28.5107 9.31756 28.0612 9.43098 27.6047 9.42864C27.1483 9.42631 26.6999 9.30831 26.3014 9.08565C25.9092 8.8518 25.5826 8.52228 25.3524 8.12791C25.1221 7.73354 24.9956 7.2872 24.9848 6.83065C24.9614 6.19732 24.9014 5.76398 24.7464 5.39232C24.5789 4.98762 24.3333 4.6199 24.0236 4.31019C23.7139 4.00048 23.3461 3.75484 22.9414 3.58732Z" stroke="#545454" stroke-width="2.5"/>
</svg>
