<svg width="12" height="12" viewBox="0 0 12 12" fill="none" xmlns="http://www.w3.org/2000/svg">
<path d="M8.14397 9.00112V10.7154C8.14397 10.9427 8.05366 11.1608 7.89292 11.3215C7.73218 11.4822 7.51416 11.5725 7.28683 11.5725H1.28683C1.0595 11.5725 0.841485 11.4822 0.680739 11.3215C0.519993 11.1608 0.429688 10.9427 0.429688 10.7154V1.28683C0.429688 1.0595 0.519993 0.841485 0.680739 0.680739C0.841485 0.519993 1.0595 0.429688 1.28683 0.429688H7.28683C7.51416 0.429688 7.73218 0.519993 7.89292 0.680739C8.05366 0.841485 8.14397 1.0595 8.14397 1.28683V3.00112" stroke="white" stroke-linecap="round" stroke-linejoin="round"/>
<path d="M5.57251 6.00098H11.5725" stroke="white" stroke-linecap="round" stroke-linejoin="round"/>
<path d="M9.85815 4.28711L11.5724 6.00139L9.85815 7.71568" stroke="white" stroke-linecap="round" stroke-linejoin="round"/>
</svg>
