<svg width="38" height="40" viewBox="0 0 38 40" fill="none" xmlns="http://www.w3.org/2000/svg">
<path fill-rule="evenodd" clip-rule="evenodd" d="M4.75734 19.4586C4.75734 27.576 10.2748 33.1066 16.4723 34.2506C16.6409 34.2818 16.8021 34.3481 16.9467 34.4457C17.0912 34.5433 17.2164 34.6703 17.3149 34.8195C17.4135 34.9687 17.4835 35.1371 17.521 35.3152C17.5585 35.4933 17.5628 35.6775 17.5336 35.8573C17.5044 36.0371 17.4422 36.209 17.3507 36.3632C17.2592 36.5175 17.1401 36.6509 17.0003 36.756C16.8604 36.8612 16.7025 36.9359 16.5356 36.9759C16.3686 37.0159 16.1959 37.0205 16.0273 36.9893C8.74984 35.6453 2.15234 29.1013 2.15234 19.4586C2.15234 15.36 3.89984 12.1386 5.93984 9.69062C7.40234 7.93595 9.07484 6.50929 10.4198 5.41862H6.32984C5.99832 5.41862 5.68038 5.27814 5.44596 5.0281C5.21154 4.77805 5.07984 4.43891 5.07984 4.08529C5.07984 3.73166 5.21154 3.39253 5.44596 3.14248C5.68038 2.89243 5.99832 2.75195 6.32984 2.75195H13.8298C14.1614 2.75195 14.4793 2.89243 14.7137 3.14248C14.9481 3.39253 15.0798 3.73166 15.0798 4.08529V12.0853C15.0798 12.4389 14.9481 12.778 14.7137 13.0281C14.4793 13.2781 14.1614 13.4186 13.8298 13.4186C13.4983 13.4186 13.1804 13.2781 12.946 13.0281C12.7115 12.778 12.5798 12.4389 12.5798 12.0853V7.16262L12.5773 7.16795C11.1473 8.31462 9.40234 9.71995 7.88984 11.536C6.10234 13.68 4.75734 16.2746 4.75734 19.4586ZM32.5273 20.5386C32.5273 12.5066 27.1273 7.01062 21.0098 5.78395C20.8393 5.75309 20.6763 5.68633 20.5303 5.58754C20.3842 5.48876 20.258 5.35994 20.1592 5.20861C20.0603 5.05727 19.9906 4.88644 19.9543 4.70609C19.918 4.52573 19.9157 4.33947 19.9475 4.15816C19.9794 3.97685 20.0448 3.80412 20.1399 3.65006C20.235 3.496 20.358 3.36368 20.5015 3.26084C20.6451 3.15799 20.8064 3.08667 20.9761 3.05103C21.1458 3.0154 21.3204 3.01616 21.4898 3.05329C28.6748 4.49329 35.1323 11 35.1323 20.5386C35.1323 24.6373 33.3848 27.856 31.3448 30.3066C29.8823 32.0613 28.2098 33.488 26.8648 34.5786H30.9548C31.2864 34.5786 31.6043 34.7191 31.8387 34.9691C32.0732 35.2192 32.2048 35.5583 32.2048 35.912C32.2048 36.2656 32.0732 36.6047 31.8387 36.8548C31.6043 37.1048 31.2864 37.2453 30.9548 37.2453H23.4548C23.1233 37.2453 22.8054 37.1048 22.571 36.8548C22.3365 36.6047 22.2048 36.2656 22.2048 35.912V27.912C22.2048 27.5583 22.3365 27.2192 22.571 26.9691C22.8054 26.7191 23.1233 26.5786 23.4548 26.5786C23.7864 26.5786 24.1043 26.7191 24.3387 26.9691C24.5732 27.2192 24.7048 27.5583 24.7048 27.912V32.832H24.7098C26.1373 31.68 27.8848 30.2773 29.3948 28.4586C31.1823 26.3173 32.5273 23.7253 32.5273 20.5386Z" fill="#545454"/>
</svg>
