<svg width="20" height="20" viewBox="0 0 20 20" fill="none" xmlns="http://www.w3.org/2000/svg">
<g clip-path="url(#clip0_1_7)">
<path d="M9.99999 3.33333C12.3225 3.33333 14.3858 4.38083 15.855 5.6775C16.5925 6.32833 17.2 7.05916 17.6283 7.78666C18.0492 8.50083 18.3333 9.27499 18.3333 9.99999C18.3333 10.725 18.05 11.4992 17.6283 12.2133C17.2 12.9408 16.5925 13.6717 15.855 14.3225C14.3858 15.6192 12.3217 16.6667 9.99999 16.6667C7.67749 16.6667 5.61416 15.6192 4.14499 14.3225C3.40749 13.6717 2.79999 12.9408 2.37166 12.2133C1.94999 11.4992 1.66666 10.725 1.66666 9.99999C1.66666 9.27499 1.94999 8.50083 2.37166 7.78666C2.79999 7.05916 3.40749 6.32833 4.14499 5.6775C5.61416 4.38083 7.67832 3.33333 9.99999 3.33333ZM9.99999 4.99999C8.17999 4.99999 6.49332 5.8275 5.24832 6.92666C4.62832 7.47333 4.13832 8.07083 3.80749 8.63249C3.46916 9.20749 3.33332 9.68333 3.33332 9.99999C3.33332 10.3167 3.46916 10.7925 3.80749 11.3675C4.13832 11.9292 4.62832 12.5258 5.24832 13.0733C6.49332 14.1725 8.17999 15 9.99999 15C11.82 15 13.5067 14.1725 14.7517 13.0733C15.3717 12.5258 15.8617 11.9292 16.1925 11.3675C16.5308 10.7925 16.6667 10.3167 16.6667 9.99999C16.6667 9.68333 16.5308 9.20749 16.1925 8.63249C15.8617 8.07083 15.3717 7.47416 14.7517 6.92666C13.5067 5.8275 11.82 4.99999 9.99999 4.99999ZM9.99999 7.49999C10.0733 7.49999 10.1458 7.50333 10.2175 7.50916C10.0366 7.82654 9.96493 8.19457 10.0136 8.55664C10.0623 8.91871 10.2286 9.25476 10.4869 9.51309C10.7452 9.77141 11.0813 9.93771 11.4433 9.98638C11.8054 10.0351 12.1734 9.96342 12.4908 9.7825C12.5346 10.2843 12.4259 10.7876 12.1787 11.2266C11.9316 11.6655 11.5576 12.0195 11.1058 12.2423C10.654 12.465 10.1455 12.5461 9.64684 12.4749C9.14819 12.4037 8.68267 12.1835 8.3113 11.8432C7.93992 11.5028 7.68001 11.0583 7.56562 10.5677C7.45123 10.0772 7.48769 9.56351 7.67023 9.09403C7.85277 8.62455 8.17288 8.22116 8.5886 7.93672C9.00432 7.65228 9.49627 7.50006 9.99999 7.49999Z" fill="black"/>
</g>
<defs>
<clipPath id="clip0_1_7">
<rect width="20" height="20" fill="white"/>
</clipPath>
</defs>
</svg>
